<?xml version="1.0" encoding="utf-8"?>
<svg viewBox="0 0 1024 1024" xmlns="http://www.w3.org/2000/svg">
  <g fill="#000000" transform="matrix(5.052452087402344, 0, 0, 5.052452087402344, -1914.6322021484373, -1892.1462402343748)" style="">
    <path d="M 465.818 507.968 C 462.568 506.868 457.718 503.968 455.768 501.918 C 452.668 498.718 450.868 493.368 450.818 487.368 C 450.818 481.618 452.218 478.218 455.118 476.868 C 458.268 475.468 462.568 476.868 464.118 479.768 C 464.418 480.318 464.718 482.568 464.768 484.718 C 464.868 488.268 465.018 488.868 466.368 490.518 C 467.218 491.518 468.718 492.768 469.718 493.318 C 471.468 494.218 473.256 494.314 475.806 493.514 C 480.856 491.914 480.518 490.818 482.918 486.168 C 484.168 483.818 485.618 481.418 486.168 480.818 C 488.668 478.168 494.018 479.118 495.968 482.618 C 497.518 485.368 497.368 488.118 495.418 493.068 C 491.418 502.968 482.368 508.868 471.568 508.568 C 469.218 508.518 466.668 508.218 465.818 507.968 Z"/>
  </g>
  <ellipse style="stroke: rgb(0, 0, 0); stroke-width: 0px; transform-origin: 256.083px 484.133px;" cx="256.083" cy="484.133" rx="102.462" ry="133.718" transform="matrix(0.980467021465, 0.196683958173, -0.21934902668, 0.975920021534, 2.47673970383, -21.006476856001)"/>
  <ellipse style="stroke-width: 0px; stroke: rgb(204, 202, 202); transform-origin: 256.083px 484.133px;" cx="256.083" cy="484.133" rx="104.778" ry="137.031" transform="matrix(0.980930924416, 0.194354966283, -0.217030003667, 0.976438999176, 476.890806941003, 50.135333951315)"/>
</svg>
