<?xml version="1.0" encoding="utf-8"?>
<svg viewBox="142.1119 190.251 222.5085 125.6527" xmlns="http://www.w3.org/2000/svg">
  <path d="M 622.4 561.647 C 622.246 561.569 620.749 561.518 619.098 561.543 C 617.421 561.569 615.847 561.466 615.615 561.337 C 615.356 561.208 615.15 561.208 615.15 561.337 C 615.15 561.44 610.428 561.492 604.649 561.466 C 598.843 561.414 593.889 561.363 593.605 561.389 C 593.322 561.389 589.89 561.389 585.994 561.389 C 582.098 561.389 578.021 561.414 576.963 561.414 C 575.905 561.44 574.383 561.44 573.609 561.414 C 571.08 561.363 568.603 561.414 568.397 561.543 C 568.294 561.621 567.984 561.543 567.7 561.389 C 567.339 561.208 567.133 561.208 567.029 561.389 C 566.926 561.543 566.642 561.595 566.41 561.518 C 566.152 561.44 564.449 561.389 562.617 561.389 C 560.785 561.389 559.108 561.389 558.902 561.389 C 558.695 561.389 550.052 561.337 539.679 561.26 C 529.333 561.208 520.844 561.131 520.844 561.131 C 520.844 560.976 500.512 561.053 500.409 561.208 C 500.331 561.311 500.125 561.285 499.944 561.131 C 499.764 560.976 498.525 560.898 496.693 560.976 C 493.829 561.053 493.726 561.053 492.333 560.279 C 490.81 559.428 487.456 556.899 485.727 555.273 C 483.173 552.9 479.638 548.255 477.806 544.824 C 475.536 540.618 474.246 536.877 473.497 532.258 C 472.775 527.872 472.852 521.963 473.704 517.912 C 474.4 514.61 475.665 510.765 476.465 509.372 C 476.826 508.753 477.11 508.03 477.11 507.746 C 477.11 507.462 477.471 506.714 477.884 506.095 C 478.322 505.45 478.658 504.805 478.658 504.65 C 478.658 504.16 480.799 500.728 482.941 497.787 C 484.36 495.852 488.824 490.691 489.959 489.685 C 490.346 489.349 491.352 488.421 492.204 487.621 C 493.055 486.795 495.326 484.886 497.235 483.338 C 499.144 481.789 500.77 480.474 500.847 480.396 C 501.028 480.19 501.905 479.648 502.395 479.416 C 502.602 479.313 502.834 479.183 502.912 479.106 C 503.195 478.771 506.73 476.5 507.943 475.881 C 508.64 475.494 509.414 475.004 509.672 474.771 C 509.904 474.565 510.807 473.997 511.633 473.559 C 512.484 473.12 514.548 472.011 516.225 471.107 C 520.302 468.889 526.804 465.663 527.165 465.663 C 527.423 465.663 528.636 465.07 532.119 463.315 C 532.377 463.186 532.868 463.083 533.203 463.083 C 533.564 463.083 533.9 462.98 533.977 462.851 C 534.054 462.722 535.087 462.257 536.248 461.793 C 537.435 461.329 538.492 460.838 538.621 460.735 C 538.75 460.632 539.008 460.606 539.189 460.683 C 539.37 460.761 539.705 460.632 539.937 460.4 C 540.17 460.193 540.763 459.935 541.305 459.832 C 541.821 459.755 542.492 459.522 542.776 459.368 C 543.266 459.058 546.543 457.768 547.42 457.51 C 547.575 457.484 548.297 457.2 549.045 456.916 C 549.794 456.633 550.439 456.4 550.465 456.4 C 550.568 456.4 551.548 456.065 552.451 455.73 C 553.225 455.446 555.96 454.594 556.709 454.414 C 556.863 454.388 557.379 454.207 557.87 454.027 C 559.082 453.614 559.495 453.459 559.805 453.382 C 559.96 453.356 560.579 453.201 561.224 453.02 C 561.869 452.865 562.669 452.659 563.03 452.607 C 563.391 452.53 563.907 452.375 564.191 452.246 C 565.275 451.808 567.055 451.24 567.932 451.085 C 568.423 450.982 569.532 450.672 570.384 450.414 C 572.474 449.769 578.795 448.118 579.285 448.092 C 579.492 448.092 579.853 448.015 580.059 447.912 C 580.266 447.834 580.679 447.731 580.962 447.705 C 581.246 447.679 582.407 447.395 583.543 447.086 C 584.678 446.776 585.839 446.467 586.123 446.441 C 586.407 446.389 587.568 446.105 588.703 445.796 C 590.612 445.306 591.567 445.125 593.218 444.867 C 593.58 444.841 594.457 444.66 595.154 444.48 C 595.876 444.325 596.779 444.196 597.192 444.222 C 597.579 444.248 598.069 444.144 598.224 443.99 C 598.405 443.861 599.385 443.628 600.417 443.474 C 601.475 443.319 602.43 443.138 602.585 443.035 C 602.714 442.958 603.23 442.88 603.72 442.906 C 604.184 442.932 604.571 442.854 604.571 442.725 C 604.571 442.622 605.087 442.519 605.707 442.493 C 606.352 442.493 607.022 442.39 607.203 442.261 C 607.384 442.158 608.338 442.029 609.319 442.029 C 610.299 442.003 611.151 441.874 611.254 441.745 C 611.331 441.642 611.77 441.538 612.209 441.513 C 612.673 441.487 613.241 441.384 613.499 441.28 C 613.783 441.151 614.273 441.048 614.634 440.997 C 615.227 440.945 615.873 440.868 619.149 440.481 C 621.317 440.223 625.11 440.223 625.6 440.506 C 626.838 441.177 628.232 442.183 628.825 442.854 C 629.186 443.267 629.806 443.835 630.218 444.119 C 630.631 444.402 631.096 444.789 631.25 444.944 C 631.405 445.125 633.598 447.37 636.127 449.924 C 638.63 452.478 641.107 455.11 641.597 455.755 C 642.087 456.4 642.861 457.303 643.326 457.768 C 643.79 458.232 644.797 459.342 645.545 460.271 C 646.293 461.174 647.48 462.619 648.177 463.47 C 649.905 465.56 652.898 469.43 654.627 471.83 C 658.11 476.681 660.226 479.7 661 480.938 C 661.465 481.66 662.058 482.486 662.316 482.796 C 662.6 483.105 662.961 483.621 663.142 483.983 C 663.503 484.679 665.67 488.24 667.399 490.949 C 670.547 495.852 677.72 510.61 680.119 517.138 C 681.822 521.757 683.551 526.788 684.067 528.62 C 684.351 529.678 684.764 531.045 684.97 531.665 C 685.693 533.884 685.306 534.425 684.196 532.748 C 683.448 531.613 681.1 529.755 679.345 528.93 C 677.23 527.898 674.288 527.304 671.45 527.304 C 669.928 527.33 668.56 527.459 668.225 527.614 C 667.915 527.794 667.296 527.975 666.806 528.001 C 666.341 528.052 665.619 528.336 665.206 528.62 C 664.767 528.93 664.329 529.11 664.225 529.033 C 664.096 528.955 663.709 529.188 663.322 529.549 C 662.961 529.884 662.548 530.168 662.445 530.168 C 662.006 530.168 658.755 533.677 658.136 534.813 C 657.388 536.103 656.717 537.522 656.433 538.296 C 656.33 538.58 656.098 539.225 655.917 539.715 C 655.169 541.856 654.73 547.791 655.169 550.526 C 655.633 553.545 657.104 557.26 658.962 560.021 C 659.452 560.769 659.787 561.466 659.71 561.543 C 659.581 561.698 650.499 561.776 649.854 561.647 C 649.725 561.621 649.492 561.595 649.338 561.647 C 649.209 561.672 648.28 561.672 647.274 561.647 C 646.293 561.621 645.364 561.621 645.209 561.621 C 641.287 561.698 640.41 561.698 640.307 561.595 C 640.255 561.543 639.585 561.543 638.836 561.595 C 638.088 561.647 636.488 561.672 635.276 561.647 C 634.063 561.621 632.283 561.595 631.276 561.621 C 627.948 561.647 627.664 561.647 626.374 561.569 C 625.677 561.518 624.542 561.543 623.871 561.647 C 623.2 561.75 622.529 561.75 622.4 561.647 Z M 639.327 556.357 C 644.513 554.499 647.093 548.384 645.751 541.263 C 645.338 539.121 643.61 535.406 642.578 534.477 C 642.216 534.167 641.597 533.6 641.184 533.213 C 640.333 532.413 639.378 531.949 637.262 531.303 C 635.946 530.916 635.482 530.891 633.805 531.149 C 632.721 531.329 631.56 531.69 631.147 531.974 C 630.76 532.258 630.296 532.49 630.167 532.49 C 630.012 532.49 629.315 533.058 628.619 533.78 C 626.09 536.361 624.671 540.721 625.006 544.875 C 625.187 547.094 625.729 549.236 626.451 550.681 C 627.045 551.868 629.006 554.164 630.193 555.093 C 631.25 555.893 633.727 556.899 635.018 557.054 C 636.05 557.183 637.882 556.873 639.327 556.357 Z M 591.438 528.13 C 592.47 527.072 592.47 525.704 591.438 524.569 C 590.509 523.537 589.632 523.305 588.677 523.795 C 586.768 524.776 586.329 526.685 587.671 528.104 C 588.264 528.723 588.626 528.878 589.555 528.878 C 590.458 528.878 590.819 528.723 591.438 528.13 Z M 583.594 524.543 C 584.446 523.537 584.575 522.531 584.033 521.525 C 583.491 520.518 582.743 520.105 581.375 520.105 C 580.55 520.105 580.214 520.26 579.569 521.008 C 578.279 522.505 578.614 524.131 580.446 525.163 C 581.298 525.627 582.949 525.317 583.594 524.543 Z M 598.998 524.621 C 599.927 523.743 600.211 522.918 599.901 521.808 C 599.437 520.157 597.734 519.409 595.928 520.105 C 595.076 520.415 594.405 521.937 594.612 523.073 C 594.999 525.034 597.553 525.962 598.998 524.621 Z M 591.206 519.822 C 592.315 518.48 592.006 516.545 590.587 515.951 C 587.439 514.661 584.91 517.603 587.155 520.002 C 588.006 520.879 588.135 520.931 589.271 520.802 C 590.251 520.699 590.638 520.492 591.206 519.822 Z M 572.706 518.583 C 572.783 518.428 573.17 518.299 573.557 518.299 C 574.409 518.299 577.402 516.364 578.563 515.074 C 579.879 513.578 580.782 511.875 581.117 510.301 C 581.272 509.527 581.53 508.598 581.711 508.262 C 582.149 507.333 582.02 501.734 581.504 499.851 C 580.911 497.606 579.724 495.336 578.589 494.278 C 575.209 491.052 570.616 490.614 566.797 493.142 C 564.346 494.768 561.611 499.18 561.353 501.915 C 561.327 502.199 561.172 503.128 561.018 503.979 C 560.708 505.863 560.811 509.681 561.224 510.997 C 562.462 514.997 564.32 516.983 568.19 518.48 C 569.094 518.841 572.499 518.893 572.706 518.583 Z M 504.356 517.68 C 505.079 516.958 505.234 516.622 505.234 515.667 C 505.234 514.429 504.743 513.784 503.35 513.19 C 502.783 512.958 502.447 512.958 501.596 513.294 C 499.402 514.171 499.17 517.138 501.209 518.144 C 502.499 518.79 503.376 518.66 504.356 517.68 Z M 544.814 517.241 C 547.575 516.39 548.555 515.822 550.413 513.887 C 551.806 512.468 552.322 511.694 553.071 509.888 C 554.128 507.333 554.257 505.863 553.483 504.392 C 552.58 502.56 549.665 502.018 548.375 503.412 C 548.091 503.721 547.343 504.96 546.697 506.172 C 545.459 508.572 544.814 509.088 542.208 509.914 C 540.892 510.326 540.789 510.326 539.886 509.862 C 539.37 509.578 538.596 508.933 538.183 508.443 C 537.512 507.591 537.435 507.282 537.331 505.218 C 537.254 502.999 537.228 502.921 536.351 502.121 C 535.241 501.089 533.538 500.78 532.377 501.373 C 529.823 502.689 529.307 507.798 531.294 512.029 C 532.274 514.145 533.358 515.229 535.577 516.313 C 538.26 517.628 538.415 517.68 540.789 517.732 C 542.44 517.783 543.446 517.654 544.814 517.241 Z M 667.193 514.868 C 669.618 513.319 670.469 510.301 669.179 507.72 C 668.276 505.966 665.799 504.598 663.761 504.805 C 660.974 505.063 659.065 506.766 658.755 509.32 C 658.394 512.055 659.297 513.99 661.465 515.1 C 663.193 515.977 665.593 515.874 667.193 514.868 Z M 494.913 514.816 C 495.919 514.3 496.513 513.113 496.409 511.771 C 496.332 510.894 496.203 510.636 495.506 510.223 C 493.829 509.269 492.41 509.501 491.559 510.868 C 490.81 512.107 490.888 513.397 491.765 514.223 C 492.9 515.28 493.7 515.435 494.913 514.816 Z M 522.134 511.23 C 524.74 510.043 526.778 507.333 527.991 503.463 C 528.43 502.044 528.791 500.393 528.765 499.799 C 528.765 499.18 528.843 498.638 528.972 498.561 C 529.333 498.354 528.972 494.613 528.404 492.755 C 528.094 491.775 527.14 489.607 526.907 489.401 C 526.804 489.324 526.443 488.859 526.056 488.343 C 525.204 487.208 521.902 485.505 521.257 485.892 C 521.128 485.995 520.921 485.918 520.818 485.763 C 520.637 485.453 518.341 485.634 516.845 486.098 C 515.632 486.485 512.923 488.421 511.787 489.736 C 509.852 492.007 508.407 495.774 507.891 499.877 C 507.685 501.58 508.253 505.321 508.949 506.817 C 510.342 509.888 513.49 512.133 516.716 512.365 C 518.651 512.494 519.941 512.236 522.134 511.23 Z M 502.912 509.862 C 504.898 508.185 504.227 505.553 501.699 505.218 C 500.202 505.037 499.351 505.476 498.783 506.74 C 498.035 508.469 498.551 509.656 500.331 510.378 C 500.976 510.636 502.292 510.378 502.912 509.862 Z M 491.713 507.617 C 492.642 506.688 492.771 506.018 492.307 504.65 C 491.946 503.618 491.275 503.257 489.649 503.283 C 488.514 503.308 488.23 503.437 487.585 504.134 C 486.94 504.856 486.863 505.089 487.018 506.121 C 487.25 507.901 487.921 508.443 489.856 508.469 C 490.63 508.495 491.017 508.314 491.713 507.617 Z M 642.216 504.753 C 648.306 503.489 651.582 498.587 651.557 490.82 C 651.557 489.401 651.376 487.311 651.144 486.176 C 650.912 485.041 650.654 483.802 650.576 483.389 C 650.499 483.002 650.344 482.615 650.215 482.538 C 650.086 482.46 649.983 482.073 649.983 481.66 C 649.983 481.248 649.88 480.835 649.725 480.757 C 649.596 480.68 649.467 480.422 649.467 480.216 C 649.467 479.261 645.7 472.165 645.029 471.907 C 644.926 471.856 644.822 471.649 644.822 471.443 C 644.822 471.236 643.506 469.766 641.933 468.166 C 639.352 465.612 638.707 465.096 636.359 463.883 C 634.579 462.98 633.469 462.541 633.082 462.644 C 632.721 462.696 632.412 462.67 632.386 462.567 C 632.283 462.283 628.412 462.077 628.128 462.309 C 628.025 462.412 627.354 462.644 626.658 462.825 C 624.955 463.289 622.607 465.121 621.394 466.928 C 620.13 468.811 619.098 472.14 618.917 474.823 C 618.685 477.919 619.356 482.925 620.388 485.995 C 621.368 488.859 624.155 494.303 625.651 496.264 C 627.406 498.535 631.199 502.044 632.824 502.895 C 636.953 505.063 638.939 505.45 642.216 504.753 Z M 568.19 477.893 C 571.08 476.836 572.396 475.803 573.738 473.507 C 575.983 469.688 573.661 464.58 568.965 463.006 C 565.559 461.87 562.978 461.741 559.624 462.541 C 555.96 463.418 553.767 464.992 552.477 467.727 C 550.49 471.882 552.838 476.371 557.818 478.022 C 560.166 478.796 560.166 478.796 563.288 478.693 C 565.714 478.616 566.617 478.461 568.19 477.893 Z M 604.984 470.153 C 606.661 469.043 606.945 468.708 607.9 466.773 C 608.777 464.992 608.906 463.806 608.338 461.999 C 607.384 458.748 604.752 456.891 601.165 456.891 C 598.069 456.891 595.592 458.336 594.405 460.864 C 593.502 462.799 593.347 464.038 593.838 465.689 C 594.947 469.508 597.914 471.495 601.991 471.159 C 603.333 471.056 603.952 470.824 604.984 470.153 Z" style="" transform="matrix(1, 0, 0, 1, -330.8935241699219, -245.82046508789062)"/>
  <path d="M 676.172 474.952 C 676.094 474.823 675.578 474.746 675.062 474.823 C 673.359 475.055 669.128 473.791 666.986 472.398 C 665.232 471.288 662.471 468.605 661.207 466.824 C 660.562 465.947 660.045 465.096 660.045 464.941 C 660.045 464.786 660.484 464.838 661.155 465.07 C 663.348 465.844 669.876 465.637 671.527 464.734 C 671.811 464.58 672.353 464.373 672.74 464.27 C 673.617 464.064 676.997 461.406 678.029 460.09 C 679.165 458.645 680.429 456.426 680.429 455.859 C 680.429 455.6 680.532 455.317 680.635 455.239 C 680.739 455.188 680.868 454.697 680.893 454.181 C 680.945 453.691 681.074 452.995 681.203 452.633 C 681.616 451.55 681.28 446.363 680.713 444.893 C 680.584 444.609 680.352 443.912 680.171 443.37 C 679.681 441.822 678.287 439.629 676.714 437.875 C 675.914 437.023 675.269 436.223 675.269 436.172 C 675.269 435.862 679.087 436.326 680.61 436.791 C 681.487 437.049 682.467 437.281 682.751 437.281 C 683.035 437.281 683.345 437.462 683.422 437.668 C 683.525 437.875 683.783 438.055 684.016 438.055 C 684.248 438.055 685.512 438.752 686.828 439.629 C 688.557 440.764 689.615 441.693 690.776 443.138 C 692.453 445.202 694.981 450.105 694.723 450.776 C 694.646 450.982 694.698 451.24 694.852 451.343 C 695.007 451.421 695.136 452.117 695.136 452.84 C 695.136 453.588 695.239 454.362 695.368 454.568 C 695.523 454.775 695.549 455.033 695.472 455.188 C 695.368 455.317 695.343 456.142 695.368 456.994 C 695.42 458.697 694.465 462.619 693.511 464.502 C 692.375 466.773 688.763 471.211 688.015 471.211 C 687.86 471.211 687.344 471.546 686.854 471.959 C 685.822 472.836 682.906 474.255 681.977 474.333 C 681.616 474.384 680.816 474.513 680.171 474.642 C 678.004 475.107 676.352 475.236 676.172 474.952 Z" style="" transform="matrix(1, 0, 0, 1, -330.8935241699219, -245.82046508789062)"/>
</svg>