<?xml version="1.0" encoding="utf-8"?>
<svg viewBox="117.7289 172.4908 783.3212 643.8161" xmlns="http://www.w3.org/2000/svg">
  <path d="M569.40 816.20 c-0.15 -0.15 -13.20 -0.35 -28.95 -0.40 -15.80 -0.10 -29.10 -0.35 -29.55 -0.55 -0.55 -0.20 -0.90 -0.15 -0.90 0.20 0 0.65 -2.85 0.50 -4 -0.20 -0.45 -0.25 -0.75 -0.20 -0.90 0.15 -0.20 0.70 -1.90 0.80 -2.30 0.20 -0.20 -0.35 -2.55 -0.45 -2.55 -0.10 0 0.25 -22.70 0.10 -23.15 -0.20 -0.30 -0.20 -1 -0.05 -1.55 0.30 -0.75 0.45 -1.15 0.45 -1.70 -0.05 -0.55 -0.40 -0.85 -0.45 -1.10 -0.05 -0.20 0.30 -0.60 0.35 -1.15 0.05 -0.50 -0.30 -1.10 -0.25 -1.70 0.10 -0.60 0.40 -1.05 0.40 -1.40 0.05 -0.30 -0.30 -1.50 -0.40 -3.15 -0.15 -1.55 0.20 -2.85 0.10 -3.20 -0.15 -0.45 -0.35 -0.90 -0.30 -1.40 0.10 -0.60 0.50 -0.90 0.50 -1.50 0 -0.40 -0.30 -0.95 -0.45 -1.30 -0.25 -0.60 0.40 -9.40 0.65 -9.75 0.30 -0.35 -0.40 -5.90 -0.35 -6.45 0 -0.25 0.20 -1.40 0.20 -2.50 0 -1.55 -0.25 -11 -0.30 -21 -0.05 -0.25 0 -15.25 -0.10 -33.25 -0.25 -18 -0.10 -33.05 -0.20 -33.35 -0.20 -2.35 0.15 -6.10 0.15 -10.40 0.05 -2.75 -0.10 -10.85 -0.15 -18 -0.15 -7.15 0 -15.15 -0.05 -17.75 -0.10 -2.60 -0.10 -5.15 0.05 -5.65 0.30 -0.45 0.20 -1.15 0.25 -1.45 0.05 -0.30 -0.20 -2.40 -0.30 -4.60 -0.25 -2.25 0.05 -4.40 0.05 -4.80 0.05 -0.40 0 -4.90 -0.05 -10 -0.05 -5.25 -0.05 -9.40 -0.30 -9.55 -0.55 -0.20 -0.30 -0.75 -0.25 -1.40 0.15 -0.80 0.55 -1.25 0.55 -2 0.10 -0.50 -0.35 -1.10 -0.45 -1.25 -0.25 -0.55 0.55 -4.50 0.55 -5.15 0 -0.45 -0.35 -0.85 -0.35 -1.30 -0.05 -0.65 0.55 -11.45 0.45 -12.40 -0.10 -0.30 -0.20 -0.75 -0.05 -1 0.30 -0.40 0.60 -0.50 0.60 -0.90 0 -0.35 -0.55 -0.65 -0.60 -1.15 -0.15 -0.55 0.45 -0.85 0.45 -1.30 0 -0.40 -0.40 -0.75 -0.40 -1.30 0.05 -0.40 0.35 -0.95 0.50 -1.15 0.40 -0.60 -0.40 -9.35 -0.60 -9.90 -0.25 -0.55 0.35 -3.70 0.15 -5.20 -0.35 -0.50 -0.15 -1.10 -0.05 -1.30 0.25 -0.15 0.30 -0.55 0.40 -0.80 0.20 -0.70 -0.40 -35.45 -0.45 -36.80 0 -0.60 0.20 -1.20 0.10 -1.40 -0.15 -0.15 -0.30 -1.20 -0.40 -2.40 -0.25 -1.15 0.15 -2.45 0.25 -2.85 0.20 -0.40 0 -1.65 0 -2.75 0.05 -2.60 0.10 -2.65 0.10 -11.75 -0.25 -4.25 -0.20 -8.20 -0.35 -8.75 -0.35 -0.55 0 -2.10 -0.30 -3.40 -0.70 -1.30 -0.40 -2.70 -0.60 -3.10 -0.40 -0.40 0.15 -0.75 0 -0.75 -0.25 0 -0.30 -0.70 -0.50 -1.50 -0.50 -0.85 0.05 -1.80 -0.20 -2.10 -0.50 -0.35 -0.35 -1.10 -0.60 -1.65 -0.60 -1.30 0 -3.90 -1.25 -4.75 -2.25 -0.35 -0.40 -0.90 -0.75 -1.25 -0.75 -1.50 0 -4.35 -2.05 -8.30 -5.95 -4.75 -4.70 -6.55 -7.85 -8.45 -14.55 -1.75 -6.25 -2.85 -20.80 -1.95 -25.70 0.85 -4.65 4.05 -10.40 8.15 -14.60 1.95 -2 3.90 -4 4.35 -4.50 0.45 -0.55 1.75 -1.50 2.85 -2.15 1.10 -0.65 2.25 -1.75 2.55 -2.40 0.30 -0.65 1.35 -1.55 2.35 -1.95 1 -0.40 2.85 -1.70 4.15 -2.90 1.25 -1.15 3.10 -2.60 4.10 -3.20 0.95 -0.60 2.70 -2.10 3.85 -3.35 1.10 -1.25 2.45 -2.25 3 -2.25 0.50 0 1.95 -1.10 3.25 -2.50 1.30 -1.35 2.60 -2.50 2.90 -2.50 0.30 0 1.45 -0.75 2.45 -1.60 2.55 -2.20 8.60 -7 12 -9.50 1.50 -1.10 3.70 -2.85 4.85 -3.95 1.15 -1.05 2.20 -1.95 2.35 -1.95 0.55 0 5.05 -3.60 6.35 -5.05 0.70 -0.80 1.70 -1.45 2.15 -1.45 0.50 0 1.95 -1 3.25 -2.25 1.25 -1.25 3.65 -3.15 5.30 -4.25 1.65 -1.10 4 -2.90 5.20 -4 1.15 -1.10 2.35 -2 2.55 -2 0.25 0 1.40 -0.90 2.60 -2 1.20 -1.15 2.85 -2.40 3.65 -2.85 0.85 -0.45 2.65 -1.75 4 -2.90 1.40 -1.20 3.75 -2.80 5.25 -3.65 1.50 -0.80 3.05 -2.10 3.40 -2.80 0.35 -0.70 1 -1.30 1.40 -1.30 0.85 0 0.90 -0.70 0.10 -2.15 -0.30 -0.60 -0.60 -1.70 -0.70 -2.45 -0.05 -0.80 -0.45 -1.95 -0.90 -2.65 -0.45 -0.65 -0.80 -1.95 -0.80 -2.90 0 -0.90 -0.20 -1.85 -0.45 -2.10 -1.10 -1.15 -1.65 -9.75 -1.75 -25.90 0 -9.35 0.10 -17.20 0.30 -17.50 0.20 -0.30 0.10 -0.95 -0.15 -1.40 -0.30 -0.55 -0.25 -1 0.05 -1.20 0.35 -0.20 0.35 -0.60 0 -1.20 -0.25 -0.50 -0.35 -1.05 -0.15 -1.25 0.15 -0.15 0.30 -10.95 0.25 -24.05 -0.05 -14.70 0.10 -23.85 0.40 -24 0.30 -0.20 0.35 -0.65 0.05 -1.20 -0.30 -0.50 -0.45 -10.65 -0.45 -24.40 0 -12.95 -0.15 -23.80 -0.30 -24.10 -0.20 -0.30 -0.20 -0.80 0 -1.15 0.20 -0.30 0.40 -10.30 0.40 -22.20 0.05 -16.60 0.20 -21.80 0.70 -22.30 0.75 -0.75 0.80 -1.45 0 -1.30 -0.70 0.15 -0.95 -4.35 -0.35 -5.65 0.25 -0.45 0.25 -1 0.05 -1.20 -0.50 -0.50 -0.55 -51.85 0 -52.85 0.20 -0.50 0.20 -0.95 -0.05 -1.10 -0.70 -0.45 -0.25 -26.85 0.45 -27.30 0.45 -0.30 0.45 -0.45 -0.05 -0.60 -0.85 -0.30 -1 -6.45 -0.20 -7 0.30 -0.25 0.30 -0.75 -0.15 -1.40 -0.45 -0.70 -0.45 -1.30 -0.15 -1.95 0.30 -0.50 0.40 -1.05 0.25 -1.20 -0.45 -0.45 -0.50 -30.60 -0.05 -31.55 0.30 -0.55 0.25 -1.10 -0.10 -1.45 -0.70 -0.70 -0.70 -3.05 -0.05 -5.30 0.30 -1.05 0.30 -2 0 -2.55 -0.25 -0.50 -0.35 -1 -0.15 -1.15 0.15 -0.20 0.35 -2.40 0.45 -4.95 0.20 -4.75 0.45 -7.45 0.90 -10.15 0.15 -0.80 0.50 -2.75 0.75 -4.25 0.60 -3.20 1.60 -6.15 3.30 -9.50 0.70 -1.35 1.25 -2.70 1.25 -3 0 -0.60 5.25 -8.30 6.50 -9.55 0.45 -0.45 1.25 -1.35 1.80 -2 2.25 -2.80 11.20 -9.65 15.45 -11.80 5.20 -2.65 8 -3.85 9.40 -4 0.85 -0.10 1.80 -0.40 2.05 -0.65 0.30 -0.30 1.10 -0.50 1.80 -0.50 0.70 0 1.50 -0.20 1.75 -0.45 0.70 -0.60 6.55 -1.75 7.40 -1.40 0.40 0.15 1 0.05 1.40 -0.15 0.40 -0.25 0.95 -0.20 1.30 0.10 0.45 0.35 0.85 0.35 1.30 0 0.75 -0.60 7.50 -0.85 9.45 -0.35 0.75 0.20 1.65 0.15 2 -0.05 0.35 -0.25 11.50 -0.45 24.70 -0.50 13.25 -0.05 25 -0.25 26.10 -0.45 1.15 -0.20 2.35 -0.15 2.65 0.05 0.95 0.55 8.90 0.55 9.10 -0.05 0.10 -0.30 0.50 -0.25 1 0.15 0.45 0.40 1.05 0.55 1.30 0.35 0.85 -0.50 9.25 -0.70 9.85 -0.25 0.30 0.30 1.20 0.30 2.20 0 0.95 -0.25 1.80 -0.30 1.95 -0.10 0.35 0.45 4.55 0.55 4.55 0.10 0 -0.50 6.65 -0.50 7.30 0.05 0.40 0.35 0.95 0.35 1.55 0.05 1.05 -0.55 9.60 -0.50 10.50 0.05 0.30 0.20 0.70 0.15 0.85 -0.05 0.15 -0.25 8.55 -0.45 18.65 -0.50 10.15 0 18.65 -0.05 18.90 -0.10 0.95 -0.20 5.65 -0.10 6.10 0.10 0.70 0.35 7.35 0.15 8.05 -0.25 0.30 -0.25 0.85 -0.25 1.15 -0.10 0.65 0.45 15.20 0.45 15.85 0.05 0.25 -0.15 1.50 -0.10 2.75 0.15 1.45 0.25 2.45 0.25 2.80 -0.10 0.35 -0.35 0.75 -0.30 1.25 0.10 0.40 0.35 1.05 0.45 1.35 0.25 0.35 -0.20 2.90 -0.30 5.65 -0.25 5.30 0.10 6.40 0.10 7.45 0 0.30 -0.05 2.20 -0.05 4.10 0 1.95 0.05 5.65 -0.05 8.25 -0.15 2.65 -0.10 5 0.05 5.35 0.30 0.35 0.25 0.90 0.30 1.25 0.10 0.35 -0.25 10.90 -0.50 23.40 -0.55 36 -0.20 81.25 -0.55 81.25 -0.60 0 -0.30 12.20 -0.05 12.95 0.25 0.50 0.20 1.05 0.15 1.25 -0.15 0.15 -0.30 2.55 -0.35 6.05 -0.15 3.15 0.20 6.40 0.15 7.25 -0.10 0.80 -0.20 1.90 -0.25 2.45 -0.10 1.10 0.35 7.75 0.60 8.05 0.30 0.15 -0.15 69.65 -0.70 73.75 -0.60 2.30 0.05 13.10 -0.05 18.25 -0.15 3.30 -0.10 6.40 0.05 6.90 0.30 0.55 0.25 1.15 0.20 1.55 -0.10 0.40 -0.30 2.10 -0.40 4.35 -0.25 2.05 0.15 5.40 0.35 7.45 0.50 2.05 0.10 5.20 0.40 7 0.70 3.60 0.55 11.65 3 11.90 3.60 0.10 0.20 0.50 0.40 0.90 0.40 2.35 0 9.75 4.70 14.20 9.05 0.95 0.95 2.80 2.65 4.10 3.80 1.25 1.15 2.45 2.55 2.65 3.15 0.15 0.55 1 1.75 1.80 2.60 1.40 1.55 2.20 3.05 4.50 8.30 0.55 1.30 1.25 2.75 1.50 3.20 0.25 0.50 0.45 1.40 0.45 2 0.05 1.35 1.10 5.40 1.65 6.25 0.20 0.30 0.45 4.45 0.55 9.25 0.15 4.75 0.35 9.05 0.55 9.50 0.20 0.45 0.15 1.15 -0.05 1.45 -0.55 0.90 -0.55 10.40 0 10.60 0.25 0.10 0.30 0.60 0.10 1.15 -0.45 1.15 -0.50 21.10 -0.05 23.15 0.15 0.80 0.10 1.55 -0.10 1.70 -0.55 0.35 -0.50 7.85 0 8.70 0.20 0.35 0.20 1.05 -0.05 1.50 -0.25 0.50 -0.40 1.70 -0.30 2.65 0.10 0.95 0.20 2 0.20 2.25 0 0.30 -0.05 2.75 -0.05 5.50 0 2.75 -0.05 5.90 -0.05 7 0 1.10 0 5.85 0.05 10.50 0 4.70 0.05 8.75 0 9 0 0.30 -0.10 6.15 -0.20 13 -0.10 6.90 -0.25 12.60 -0.25 12.75 -0.05 0.15 -0.05 7.70 0 16.85 0.05 11.60 -0.10 16.90 -0.50 17.65 -0.35 0.70 -0.40 1.25 -0.10 1.65 0.60 0.75 0.45 50.70 -0.15 52.05 -0.25 0.60 -0.25 1.05 0.05 1.15 0.50 0.15 0.60 11.10 0.10 11.90 -0.15 0.30 -0.10 1.60 0.10 2.90 0.20 1.35 0.15 3.55 -0.10 4.90 -0.30 1.80 -0.30 2.75 0.10 3.20 0.35 0.40 0.45 0.95 0.25 1.25 -0.45 0.75 -0.50 19.70 -0.05 20.40 0.20 0.35 0.20 0.85 0 1.15 -0.20 0.35 -0.45 11.90 -0.55 25.75 -0.20 20.70 -0.10 25.20 0.45 25.20 0.50 0 0.50 0.10 0.05 0.40 -0.50 0.30 -0.65 4.80 -0.70 19.40 -0.05 13.35 -0.25 19.05 -0.65 19.35 -0.40 0.25 -0.35 0.50 0.15 0.80 0.55 0.35 0.60 0.65 0.15 1.15 -0.35 0.50 -0.40 1.30 -0.05 2.80 0.25 1.20 0.35 2.40 0.15 2.65 -0.15 0.30 -0.40 4.95 -0.50 10.35 -0.10 5.40 -0.30 11.90 -0.45 14.35 -0.15 2.50 -0.35 5.90 -0.40 7.60 -0.10 1.70 -0.40 3.35 -0.70 3.75 -0.30 0.35 -0.70 1.50 -0.90 2.55 l-0.35 1.90 4.30 -0.25 c2.35 -0.15 4.30 -0.05 4.30 0.15 0 0.25 0.85 0.45 1.90 0.45 2.90 0 9.50 0.90 13.35 1.85 6.30 1.50 15.65 4.70 18.15 6.20 1.35 0.80 3.45 1.90 4.65 2.45 1.20 0.55 2.75 1.50 3.45 2.05 0.70 0.60 2.70 2.15 4.50 3.50 5.50 4.10 9.25 8.25 13.45 14.85 1.40 2.25 2.55 4.30 2.55 4.60 0 0.35 0.25 0.60 0.50 0.60 0.30 0 0.50 0.55 0.50 1.20 0 0.70 0.25 1.40 0.50 1.55 0.30 0.15 0.50 0.80 0.50 1.45 0 0.60 0.20 1.30 0.40 1.60 1.80 2 2.45 15.60 0.95 20.50 -1.05 3.50 -3 7.50 -5 10.30 -3.95 5.60 -13.95 14.65 -18.95 17.15 -0.90 0.50 -2 1.15 -2.40 1.50 -1.10 1 -12.80 6.75 -13.65 6.75 -0.40 0 -1.30 0.45 -2 1 -0.70 0.55 -1.60 1 -2 1 -0.80 0 -5.50 1.35 -7.10 2.05 -0.90 0.40 -4.35 1.30 -6.25 1.65 -0.40 0.05 -1.10 0.25 -1.50 0.40 -0.40 0.20 -2.30 0.60 -4.25 0.90 -1.90 0.35 -3.85 0.75 -4.25 0.90 -1 0.35 -2.40 0.50 -7.85 0.75 -2.50 0.15 -4.75 0.35 -5 0.50 -0.20 0.15 -1.50 0.25 -2.90 0.25 -1.35 -0.05 -5.30 0 -8.75 0.05 -7.70 0.15 -19.25 -1.25 -20.75 -2.50 -0.30 -0.20 -1 -0.40 -1.50 -0.35 -2.10 0.10 -12.45 -3.30 -14 -4.60 -0.55 -0.50 -2.20 -1.50 -3.70 -2.30 -6.50 -3.45 -14 -13 -15.85 -20.25 -0.95 -3.55 -1.20 -11.45 -0.60 -16.40 0.25 -1.75 0.30 -3.30 0.15 -3.45 -0.10 -0.15 -0.85 0.35 -1.55 1.05 -0.75 0.75 -1.50 1.35 -1.70 1.35 -0.20 0 -2.25 1.40 -4.55 3.15 -3.65 2.75 -5.45 3.85 -6.45 4.05 -0.15 0.05 -1.35 1.15 -2.70 2.45 -1.35 1.30 -2.85 2.35 -3.30 2.35 -0.50 0 -1.50 0.60 -2.30 1.35 -0.80 0.75 -1.65 1.30 -1.85 1.25 -0.20 -0.05 -0.50 0.25 -0.65 0.65 -0.20 0.40 -0.65 0.75 -1 0.75 -0.40 0 -0.85 0.35 -1 0.75 -0.20 0.40 -0.65 0.75 -1 0.75 -0.40 0 -0.85 0.35 -1 0.75 -0.20 0.40 -0.75 0.75 -1.25 0.75 -0.50 0 -0.95 0.25 -0.95 0.50 0 0.30 -0.30 0.50 -0.65 0.50 -0.35 0 -1.30 0.70 -2.10 1.50 -0.80 0.85 -1.65 1.50 -1.90 1.50 -0.30 0 -1.70 0.90 -3.15 2 -1.45 1.10 -2.90 2 -3.15 2 -0.30 0 -0.70 0.30 -0.90 0.70 -0.20 0.35 -0.95 0.95 -1.65 1.30 -0.70 0.35 -1.55 1.10 -1.90 1.60 -0.40 0.55 -0.95 0.85 -1.25 0.75 -0.55 -0.20 -5.85 3.45 -7.10 4.85 -0.25 0.30 -1.05 0.85 -1.75 1.20 -0.70 0.30 -1.70 0.85 -2.25 1.20 -0.55 0.35 -1.85 1.15 -2.85 1.75 -1.05 0.65 -2.20 1.15 -2.60 1.15 -0.40 0 -0.80 0.20 -0.90 0.45 -0.05 0.20 -2.15 1.35 -4.65 2.50 -2.45 1.15 -4.90 2.35 -5.35 2.60 -0.50 0.25 -1.30 0.45 -1.80 0.45 -0.50 0 -1.10 0.20 -1.40 0.40 -1.85 1.60 -16.85 5.05 -25.45 5.85 -7.10 0.65 -37.45 1.10 -51.55 0.70 -2.20 -0.05 -4.25 0.05 -4.55 0.20 -0.30 0.20 -0.65 0.20 -0.75 0.05z m-5.40 -15.30 c0 -0.30 0.30 -0.30 0.70 0.05 0.55 0.45 1.25 0.45 2.85 0.05 1.35 -0.35 2.25 -0.40 2.55 -0.10 0.30 0.30 1.10 0.35 1.90 0.10 0.90 -0.25 1.60 -0.20 1.95 0.15 0.45 0.45 0.80 0.45 1.50 0 0.60 -0.40 1.65 -0.40 3.30 -0.10 1.60 0.30 2.60 0.30 2.95 -0.05 0.60 -0.60 2.95 -0.65 3.50 -0.15 0.55 0.60 9 0.55 9.40 -0.05 0.20 -0.30 0.65 -0.25 1.15 0.20 0.65 0.55 1.05 0.55 1.75 0.10 0.50 -0.30 1.05 -0.40 1.20 -0.25 0.50 0.55 5 0.60 5.65 0.05 0.35 -0.30 0.70 -0.25 0.90 0.10 0.15 0.25 0.95 0.50 1.75 0.50 0.80 0 1.60 -0.25 1.75 -0.50 0.20 -0.35 0.55 -0.40 0.90 -0.10 0.35 0.30 1.60 0.40 2.85 0.30 1.25 -0.10 5.45 -0.30 9.30 -0.40 5.10 -0.20 8.55 -0.60 12.45 -1.55 2.95 -0.70 5.85 -1.25 6.50 -1.25 0.65 0 1.30 -0.20 1.45 -0.45 0.15 -0.20 0.95 -0.55 1.80 -0.70 0.80 -0.20 2.50 -0.80 3.70 -1.35 1.25 -0.55 2.35 -1 2.50 -1 0.75 0 9.50 -4.60 12.25 -6.45 1.75 -1.10 3.45 -2.05 3.80 -2.05 0.40 0 0.90 -0.30 1.10 -0.60 0.20 -0.35 1.25 -1.10 2.30 -1.60 1.05 -0.55 2.40 -1.45 3 -2.05 1.40 -1.30 5.15 -3.75 5.80 -3.75 0.30 0 0.70 -0.30 0.90 -0.65 0.20 -0.35 2.70 -2.20 5.55 -4.10 2.80 -1.95 6.60 -4.55 8.50 -5.85 1.85 -1.30 4.80 -3.35 6.60 -4.55 1.80 -1.20 4.25 -3 5.50 -4.05 2.95 -2.40 11.80 -8.80 12.20 -8.80 0.20 0 1.85 -1.20 3.70 -2.65 1.85 -1.45 4.30 -3.05 5.45 -3.55 1.15 -0.50 2.80 -1.65 3.70 -2.60 0.90 -0.95 2.05 -1.70 2.60 -1.70 1.05 0 6.55 -5.45 13.60 -13.40 4.40 -5 10.60 -10.45 16.10 -14.20 1.50 -1.05 2.85 -1.90 3 -1.90 0.15 0 0.85 -0.45 1.60 -0.95 1.85 -1.30 11.15 -6.05 11.90 -6.05 0.30 0 1.20 -0.75 2 -1.65 0.75 -0.95 3.15 -3.10 5.25 -4.80 2.10 -1.75 4 -3.50 4.15 -3.95 0.20 -0.45 0.45 -3.20 0.55 -6.10 0.10 -2.90 0.30 -5.75 0.45 -6.35 0.35 -1.50 -0.65 -2 -1.55 -0.70 -0.40 0.60 -1 1.05 -1.25 1.05 -0.30 0 -2.10 1.30 -4.05 2.90 -1.95 1.55 -4.20 3.35 -5.10 3.95 -0.85 0.60 -1.80 1.35 -2.15 1.65 -0.35 0.25 -0.80 0.50 -1.05 0.50 -0.20 0 -1.30 0.90 -2.35 2 -1.05 1.10 -2.25 2 -2.55 2 -0.35 0 -0.70 0.15 -0.80 0.40 -0.10 0.20 -1.05 0.95 -2.15 1.65 -1.10 0.75 -3.90 2.95 -6.25 4.90 -2.35 1.95 -4.50 3.55 -4.80 3.55 -0.30 0 -1.20 0.65 -2 1.50 -0.80 0.80 -1.60 1.50 -1.80 1.50 -0.55 0 -10.35 7.25 -12 8.80 -0.75 0.70 -1.55 1.15 -1.80 1 -0.25 -0.15 -1 0.30 -1.65 1 -0.65 0.70 -2.60 2.35 -4.30 3.60 -1.75 1.25 -3.15 2.45 -3.15 2.70 0 0.20 -0.20 0.40 -0.50 0.40 -0.60 0 -7.20 4.90 -7.40 5.55 -0.10 0.25 -0.50 0.45 -0.95 0.45 -0.40 0 -1.80 0.90 -3.05 2 -2.60 2.20 -8.50 6.65 -14.80 11.10 -2.25 1.60 -4.30 3.25 -4.65 3.70 -0.30 0.45 -0.80 0.65 -1.10 0.50 -0.25 -0.15 -1.20 0.40 -2.15 1.20 -0.90 0.85 -3.15 2.55 -4.95 3.75 -1.80 1.20 -3.60 2.45 -4 2.85 -1.15 1.10 -6.85 4.90 -7.30 4.90 -0.25 0 -1.10 0.70 -1.95 1.55 -0.80 0.85 -2.30 2 -3.35 2.50 -1.05 0.55 -2.60 1.60 -3.40 2.35 -2.15 2 -2.50 2.25 -4.95 3.60 -1.25 0.65 -3.15 1.90 -4.30 2.75 -1.70 1.35 -9.35 5.30 -12.95 6.70 -3.10 1.25 -10.90 3.55 -11.95 3.55 -0.70 0 -1.85 0.25 -2.60 0.50 -0.70 0.30 -3.15 0.60 -5.40 0.75 -2.20 0.10 -4.85 0.35 -5.80 0.45 -6 0.90 -41.25 1.40 -42.35 0.60 -0.40 -0.25 -0.90 -0.25 -1.25 0.05 -0.35 0.20 -2.45 0.35 -4.65 0.30 -2.20 -0.05 -4.80 -0.10 -5.75 -0.05 -0.95 0 -2.15 0 -2.60 -0.05 -0.95 -0.05 -2.35 -0.10 -3.65 -0.05 -1 0 -2.10 0 -2.85 0 -2.05 -0.05 -11.25 -0.10 -12.50 -0.05 -2.30 0.05 -8.35 0.05 -15.05 -0.10 -4.10 -0.05 -7.55 0.10 -7.70 0.30 -0.15 0.20 -0.55 0.10 -1 -0.20 -0.55 -0.50 -0.95 -0.50 -1.65 -0.05 -0.60 0.35 -1.05 0.40 -1.25 0.10 -0.40 -0.70 -2.40 -0.65 -3.15 0.10 -0.40 0.40 -0.75 0.40 -1.35 -0.10 -0.60 -0.50 -0.90 -0.50 -1.50 0 -0.50 0.40 -0.95 0.45 -1.35 0.15 -0.55 -0.40 -75.10 -0.55 -76.65 -0.15 -0.25 0.05 -0.60 0.05 -0.75 0 -0.25 -0.15 -30.15 -0.45 -39.50 -0.45 -3.15 0.05 -6.25 0 -6.85 0 -3.20 -0.20 -4.05 -0.20 -5.90 -0.10 -1.10 0.05 -3.10 0 -4.45 -0.15 -1.40 -0.15 -2.75 -0.05 -3.10 0.25 -0.35 0.25 -0.75 0.30 -0.85 0.05 -0.15 -0.20 -10.65 -0.40 -23.25 -0.35 -12.65 0 -22.90 -0.15 -22.80 -0.35 0.10 -0.20 -0.40 -0.15 -1.15 0.05 -1.50 0.40 -8.80 0.30 -9.50 -0.10 -0.25 -0.15 -1.90 -0.10 -3.65 0.15 -1.80 0.20 -3.50 0.20 -3.80 -0.05 -0.30 -0.25 -0.65 -0.30 -0.80 -0.15 -0.55 0.50 -4.65 0.60 -5.25 0.10 -0.35 -0.25 -0.65 -0.25 -0.85 0 -0.15 0.25 -0.90 0.40 -1.65 0.30 -0.80 -0.15 -2.50 -0.20 -3.90 -0.20 -1.35 0.05 -3.25 0.05 -4.10 0.05 -0.90 0 -2.80 0 -4.15 -0.10 -1.40 -0.05 -2.65 0.05 -2.85 0.25 -0.15 0.15 -0.60 0.05 -0.90 -0.20 -0.65 -0.55 -2.10 -0.45 -3.10 0.15 -0.35 0.25 -0.85 0.30 -1.05 0.15 -0.65 -0.40 -13.40 -0.50 -14 -0.10 -0.35 0.20 -0.80 0.25 -1.05 0.10 -0.25 -0.15 -3.55 -0.30 -7.35 -0.30 -3.85 0 -8.40 0 -10.20 -0.05 -2.85 -0.05 -5.85 -0.05 -9.25 0 -0.55 0 -6.85 -0.05 -14 -0.10 -7.15 -0.05 -13.40 0.05 -13.90 0.30 -0.45 0.20 -1.15 0.20 -1.50 0 -0.30 -0.20 -15 -0.40 -32.60 -0.45 -29.80 -0.10 -39.65 -0.45 -41.45 -1.55 -0.75 -0.50 -4.30 -0.75 -4.30 -0.35 0 0.15 0.75 1.95 1.70 3.90 2.80 6.05 7.25 9.30 15.30 11.25 5.60 1.35 11.35 1.60 35.35 1.70 11.10 0 20.15 0.25 20.15 0.45 0 0.25 0.40 0.25 0.85 -0.05 1.05 -0.55 17.50 -0.40 18.80 0.15 0.50 0.25 1.15 0.15 1.60 -0.20 0.50 -0.40 2.35 -0.50 6.85 -0.25 9.45 0.55 10.60 0.60 11.60 0.10 0.60 -0.30 1.05 -0.25 1.30 0.15 0.25 0.40 0.70 0.45 1.30 0.15 0.55 -0.25 1.95 -0.40 3.20 -0.30 3.35 0.30 13.10 0.20 14.10 -0.15 0.45 -0.10 1.60 0.10 2.60 0.50 1.55 0.65 1.80 0.65 2.35 0 0.45 -0.55 1.05 -0.65 2.15 -0.40 0.85 0.20 8.65 0.40 17.30 0.40 8.65 0.05 16 0.20 16.35 0.45 0.30 0.20 0.70 0.15 0.90 -0.15 0.35 -0.55 9.75 -0.40 10.70 0.20 0.30 0.20 0.85 0.20 1.20 -0.05 0.50 -0.40 3.95 -0.40 14.60 -0.15 0.80 0 19 0 24.50 -0.05 0.85 0 2.75 -0.05 4.25 -0.10 1.50 -0.05 3.05 0.10 3.40 0.35 0.35 0.25 0.85 0.20 1.25 -0.10 0.35 -0.25 2.35 -0.40 4.60 -0.25 2.20 0.10 5.70 0.15 7.75 0.15 14.35 -0.25 18.50 -0.20 18.50 0.20 0 0.20 0.40 0.25 0.90 0.05 1.05 -0.40 8.70 -0.70 9.30 -0.35 0.65 0.35 14.50 0.25 15.75 -0.15 0.50 -0.15 1.10 -0.10 1.25 0.15 0.30 0.45 2.95 0.40 3.80 -0.15 0.30 -0.20 0.85 -0.05 1.25 0.25 0.40 0.30 0.90 0.45 1.20 0.30 0.45 -0.30 3.05 -0.35 16.05 -0.35 3.45 0 6.80 0 7.50 0 0.70 -0.05 4.90 0.05 9.35 0.15 4.70 0.10 8.20 0 8.30 -0.30 0.10 -0.25 0.55 -0.25 1.10 0.05 0.60 0.30 6.05 0.45 13.15 0.45 6.70 -0.05 12.30 0.10 12.40 0.30 0.10 0.15 0.85 0.15 1.60 -0.10 1.90 -0.50 8.50 -0.55 8.85 0 0.15 0.20 1.05 0.20 2.05 -0.05 1.25 -0.35 1.95 -0.35 2.45 0.05 0.40 0.35 0.95 0.40 1.30 0.20 0.95 -0.55 8.55 -0.70 9.55 -0.15 0.50 0.25 1.20 0.30 1.55 0.10 0.85 -0.55 6.55 -0.55 6.90 0 0.20 0.30 0.75 0.30 1.25 0.10 1.20 -0.50 7.20 -0.65 7.50 -0.15 0.10 0.15 0.85 0.15 1.60 -0.05 1.50 -0.40 14.15 -0.25 16 0.20 0.75 0.20 1.05 0.10 0.85 -0.25 -0.15 -0.25 0 -0.50 0.40 -0.50 0.40 0 0.85 0.35 1.05 0.75 0.30 0.80 1.80 0.50 1.80 -0.35z m233.20 -6.85 c2.50 -0.05 4.75 -0.25 5 -0.45 0.30 -0.15 1.25 -0.25 2.15 -0.15 0.90 0.05 2.35 -0.10 3.25 -0.35 0.90 -0.30 3.55 -0.85 5.90 -1.30 4.85 -0.90 13.85 -3.70 16.90 -5.25 1.15 -0.55 2.30 -1.05 2.65 -1.05 1.55 0 13.20 -6.55 18.15 -10.25 6.45 -4.75 9.15 -7.65 11.35 -12.25 1.45 -2.90 1.60 -3.70 1.60 -7.75 0 -5.40 -1.20 -9.15 -4.60 -14.70 -2.60 -4.25 -4.10 -5.85 -9.95 -10.80 -3.95 -3.35 -10 -7.25 -11.30 -7.25 -0.35 0 -1.60 -0.50 -2.85 -1.10 -1.20 -0.60 -3.20 -1.15 -4.45 -1.20 -1.25 -0.10 -3 -0.30 -3.90 -0.50 -1.65 -0.30 -5.20 0.40 -7.60 1.55 -0.70 0.35 -2.05 1 -3.10 1.50 -1 0.45 -3.45 2.20 -5.50 3.80 -2 1.60 -5.05 4.05 -6.75 5.45 -6.70 5.35 -16 18.60 -17.90 25.50 -0.15 0.70 -0.65 1.95 -1 2.80 -0.40 0.80 -0.85 2.50 -1.05 3.75 -0.20 1.20 -0.50 2.45 -0.70 2.70 -0.45 0.60 -0.95 2.75 -1.30 5.50 -0.15 1.10 -0.60 3.85 -0.95 6.10 -0.40 2.30 -0.60 4.45 -0.45 4.90 0.15 0.40 0.05 1.45 -0.25 2.30 -0.35 1.10 -0.40 1.80 -0.05 2.20 0.30 0.35 0.40 0.95 0.25 1.30 -0.15 0.40 -0.10 1.70 0.15 2.90 l0.35 2.20 4.95 0.15 c2.75 0.10 5.05 0.30 5.20 0.45 0.15 0.15 0.50 0.05 0.80 -0.15 0.30 -0.25 2.55 -0.45 5 -0.55z m-31 -11.10 c0.10 -4.50 0.45 -9.45 0.80 -10.95 0.35 -1.50 0.65 -3.35 0.70 -4.10 0 -0.70 0.20 -1.50 0.45 -1.70 0.20 -0.20 0.35 -1.05 0.35 -1.90 0 -0.85 0.35 -2.20 0.75 -3 0.40 -0.75 0.75 -1.80 0.75 -2.30 0 -1.15 2.05 -6.60 4.30 -11.40 5.25 -11.05 11.80 -19.55 20.95 -27 1.95 -1.55 3.60 -3 3.65 -3.20 0.10 -0.25 0.60 -0.40 1.15 -0.40 0.50 0 0.95 -0.20 0.95 -0.50 0 -0.25 0.35 -0.50 0.75 -0.50 0.45 0 0.90 -0.35 1.05 -0.75 0.20 -0.40 0.65 -0.75 1.05 -0.75 0.40 0 0.55 -0.20 0.40 -0.50 -0.15 -0.25 -1.10 -0.50 -2.05 -0.50 -1.25 0 -1.70 0.20 -1.70 0.85 0 0.70 -0.10 0.70 -1 -0.10 -1 -0.90 -1.05 -0.90 -1.70 0.05 -0.60 0.75 -0.85 0.85 -1.35 0.35 -0.90 -0.85 -1.45 -0.80 -1.45 0.15 0 0.55 -0.30 0.65 -0.95 0.45 -0.55 -0.15 -2.30 0.10 -3.90 0.55 -1.60 0.50 -3.20 0.85 -3.55 0.75 -0.35 -0.05 -1.40 0.35 -2.30 0.90 -0.90 0.60 -2 1.05 -2.45 1.05 -3.05 0 -16.30 9.10 -22.35 15.35 -4.95 5.10 -9.90 12.80 -11.90 18.40 -2.35 6.70 -3.15 10.50 -3.25 15.90 -0.10 5.30 0 5.75 1.45 8.85 2.05 4.30 4.15 6.65 8.65 9.60 2.90 1.90 10.90 5.20 11.40 4.70 0.05 -0.05 0.20 -3.80 0.35 -8.35z m-243.20 -11.55 c3.70 0.05 8.80 0.05 11.25 0 4.40 -0.05 6 -0.05 8 0.05 0.55 0 2.80 -0.05 5 -0.10 2.20 -0.10 4.25 0.05 4.60 0.30 0.35 0.25 0.85 0.25 1.20 0.10 0.75 -0.50 7.60 -0.50 8.40 -0.05 0.30 0.20 0.90 0.10 1.30 -0.20 0.45 -0.35 1.45 -0.45 2.60 -0.30 1.85 0.35 30.80 0.45 35.05 0.20 1.15 -0.10 2.10 0 2.10 0.25 0 0.60 1.40 0.40 1.70 -0.25 0.20 -0.45 0.40 -0.50 0.55 -0.10 0.20 0.40 1.65 0.50 4.15 0.40 10.70 -0.45 16.45 -0.75 17.45 -1 0.60 -0.20 1.95 -0.35 3 -0.45 6.80 -0.60 18.45 -4.50 21 -7.05 0.40 -0.40 1.05 -0.70 1.50 -0.70 0.75 0 5.75 -3.40 6.05 -4.10 0.10 -0.25 0.50 -0.40 0.90 -0.40 0.40 0 2.15 -1.10 3.85 -2.40 1.70 -1.30 4.90 -3.60 7.10 -5.05 2.20 -1.50 4.95 -3.45 6.10 -4.35 1.15 -0.95 2.30 -1.70 2.55 -1.70 0.30 0 1.15 -0.65 1.90 -1.45 0.75 -0.85 1.55 -1.40 1.75 -1.25 0.20 0.10 0.90 -0.35 1.50 -1.05 0.65 -0.65 1.50 -1.25 1.85 -1.25 0.40 0 1.70 -1 2.95 -2.25 1.20 -1.25 2.60 -2.25 3.05 -2.25 0.45 0 1.75 -0.85 2.90 -1.90 2.25 -2.10 5.35 -4.45 8.70 -6.60 4.20 -2.75 8.95 -6.30 10.35 -7.75 0.75 -0.75 2.20 -1.90 3.20 -2.50 1 -0.65 2.10 -1.45 2.50 -1.85 1.65 -1.50 5.65 -4.40 6.20 -4.40 0.30 0 1.55 -0.95 2.80 -2.10 1.20 -1.20 3.50 -2.95 5.10 -3.90 1.55 -0.95 2.85 -1.90 2.85 -2.10 0 -0.20 1.75 -1.55 3.90 -2.95 2.10 -1.45 3.95 -2.75 4.10 -2.90 0.40 -0.50 2.20 -1.55 3.15 -1.85 0.45 -0.20 0.85 -0.60 0.85 -0.95 0 -0.35 0.75 -1 1.70 -1.45 0.95 -0.45 2.20 -1.40 2.70 -2.05 0.55 -0.70 1.15 -1.25 1.35 -1.25 0.25 0 1.15 -0.55 2.05 -1.25 0.90 -0.70 1.85 -1.25 2.05 -1.25 0.25 0 1.10 -0.70 1.95 -1.55 0.80 -0.85 2.35 -2.15 3.45 -2.85 1.10 -0.65 3.30 -2.30 4.90 -3.55 7.60 -6 9.80 -7.75 12.05 -9.70 1.35 -1.15 3.05 -2.35 3.75 -2.70 0.70 -0.30 2.80 -2.05 4.70 -3.85 3.35 -3.30 3.35 -3.35 3.40 -6.20 0.35 -16.10 0.50 -24.50 0.45 -25.35 0 -0.55 0 -3.35 0 -6.25 0 -2.90 0 -5.70 0 -6.25 0 -2.10 0 -15.25 0.05 -20.10 0.05 -2.80 -0.10 -5.35 -0.30 -5.65 -0.20 -0.30 -0.10 -0.80 0.15 -1.15 0.35 -0.40 0.35 -1.40 0 -3 -0.35 -1.75 -0.35 -2.60 0.10 -3.10 0.40 -0.45 0.45 -1.30 0.20 -2.35 -0.45 -2.05 -0.45 -6.60 0.05 -7.40 0.20 -0.30 0.05 -0.85 -0.25 -1.25 -0.30 -0.40 -0.40 -1 -0.20 -1.30 0.20 -0.35 0.35 -12.40 0.35 -26.80 0 -14.50 0.20 -26.30 0.45 -26.45 0.20 -0.15 0.25 -0.55 0.05 -0.85 -0.50 -0.80 -0.55 -28.35 -0.05 -28.65 0.20 -0.10 0.10 -0.90 -0.20 -1.80 -0.40 -1.15 -0.40 -1.95 0.05 -3.15 0.35 -1 0.40 -2.10 0.15 -2.80 -0.25 -0.65 -0.40 -4 -0.30 -7.45 0.30 -14.30 0.30 -18.95 -0.05 -19.45 -0.15 -0.30 -0.20 -1 0 -1.50 0.55 -1.70 0.60 -26.55 0.10 -26.20 -0.30 0.20 -0.35 0.05 -0.10 -0.35 0.20 -0.30 0.45 -6.50 0.55 -13.70 0.25 -15.55 0.25 -13.70 0 -18.45 -0.05 -2.15 0 -4 0.20 -4.10 0.20 -0.15 0.20 -1.15 0 -2.25 -0.20 -1.10 -0.30 -3.30 -0.20 -4.90 0.30 -4.75 0.30 -14.05 -0.05 -14.60 -0.15 -0.25 -0.10 -0.90 0.20 -1.40 0.30 -0.60 0.30 -1.65 0 -3.10 -0.35 -1.45 -0.35 -2.25 0.05 -2.50 0.35 -0.20 0.35 -1.10 0.05 -2.75 -0.25 -1.45 -0.25 -2.90 0 -3.60 0.25 -0.70 0.25 -3 0 -5.55 -0.25 -2.40 -0.30 -4.55 -0.15 -4.85 0.50 -0.70 0.45 -6.25 0 -6.25 -0.25 0 -0.40 -0.45 -0.40 -1 0 -0.55 0.25 -1 0.50 -1 0.70 0 0.60 -2.90 -0.10 -3.10 -0.35 -0.15 -0.40 -0.45 -0.10 -0.95 0.60 -1 0.70 -19.45 0.10 -26.95 -0.35 -4.40 -0.95 -7.50 -1.95 -10.60 -1.75 -5.45 -1.90 -5.75 -5.65 -10.65 -4.25 -5.50 -4.90 -6.25 -5.70 -6.25 -0.35 0 -1.95 -0.85 -3.50 -1.90 -1.55 -1.05 -3.50 -2.20 -4.35 -2.55 -0.80 -0.35 -1.90 -0.85 -2.35 -1.10 -0.50 -0.25 -1.30 -0.45 -1.80 -0.45 -0.55 0 -1.60 -0.35 -2.45 -0.75 -2.50 -1.25 -9.75 -1.85 -23.15 -1.95 -7 0 -13.05 -0.25 -13.40 -0.45 -0.35 -0.25 -0.90 -0.25 -1.25 0.05 -0.55 0.40 -15.05 0.70 -28.35 0.55 -3.45 -0.05 -6.60 -0.05 -7 -0.05 -0.40 0.05 -16.90 0.15 -36.65 0.30 -19.75 0.10 -36 0.30 -36.10 0.40 -0.10 0.05 -2.65 0.05 -5.75 -0.10 -3.05 -0.15 -5.70 -0.10 -5.90 0.05 -0.20 0.15 -2.05 0.15 -4.10 -0.05 -2.05 -0.20 -4.20 -0.15 -4.75 0 -0.55 0.20 -2.70 0.25 -4.75 0.15 -2.05 -0.10 -4.20 -0.20 -4.75 -0.15 -0.85 0.05 -8.95 0.20 -22.50 0.40 -2.20 0 -10.65 0.05 -18.75 0.05 -8.10 0.05 -14.85 0.10 -15 0.10 -1.45 0.30 -3.55 0.25 -3.80 -0.10 -0.15 -0.25 -0.50 -0.35 -0.75 -0.15 -0.25 0.15 -13.35 0.40 -29.10 0.50 -32.70 0.30 -29.05 0.30 -31.60 0.05 -1.10 -0.05 -3.10 0.05 -4.45 0.25 -1.60 0.25 -2.70 0.20 -3.15 -0.20 -0.45 -0.35 -0.85 -0.35 -1.25 0 -0.45 0.30 -2.20 0.35 -5.15 0.10 -2.45 -0.25 -4.70 -0.30 -4.95 -0.10 -0.75 0.45 -47.45 0.50 -48.40 0 -0.45 -0.20 -0.95 -0.20 -1.10 0 -0.20 0.40 -8.90 0.55 -28.30 0.55 -3.45 0.05 -7.80 0.05 -9.75 0.05 -1.90 0 -5.85 0 -8.75 -0.05 -2.90 0 -5.45 0 -5.75 0 -0.25 0 -14.20 0.15 -31 0.25 -37.55 0.35 -42.40 0.55 -45 1.95 -0.55 0.30 -1.30 0.50 -1.70 0.40 -0.35 -0.05 -1 0.05 -1.50 0.25 -0.45 0.20 -1.10 0.40 -1.45 0.50 -1.15 0.20 -4.05 1.70 -4.35 2.20 -0.20 0.30 -0.50 0.40 -0.75 0.25 -1.05 -0.65 -11.25 6.95 -13.30 9.95 -0.60 0.85 -1.75 2.30 -2.65 3.25 -0.85 0.90 -1.55 1.95 -1.55 2.30 0 0.35 -0.15 0.75 -0.35 0.85 -0.55 0.20 -2.90 5.60 -3.85 8.70 -0.40 1.40 -0.80 3.85 -0.85 5.50 -0.05 1.60 -0.20 3.20 -0.40 3.45 -0.15 0.30 -0.35 3.45 -0.40 7 -0.20 7.50 -0.15 6.45 -0.20 15.50 0 3.85 0 7.35 0 7.75 0 0.40 0 1.30 0.05 2 0.10 2.20 0.10 13.05 0 19.50 -0.05 3.45 -0.05 6.70 -0.05 7.25 0.05 0.55 0.05 3.05 0 5.50 0 2.50 -0.05 29.50 -0.10 60 0 36.05 -0.20 55.60 -0.55 55.85 -0.30 0.20 -0.30 0.55 0.05 1 0.60 0.75 0.55 51.85 -0.05 52.80 -0.15 0.30 -0.05 1.05 0.30 1.60 0.55 0.85 0.55 1.10 -0.05 1.45 -0.40 0.25 -0.50 0.70 -0.30 1.05 0.55 0.90 0.65 4.70 0.15 5.05 -0.30 0.20 -0.20 0.75 0.20 1.40 0.55 0.90 0.55 1.15 -0.05 1.50 -0.40 0.25 -0.50 0.70 -0.30 1.05 0.50 0.80 0.55 14.15 0.05 14.90 -0.20 0.35 -0.20 0.85 0 1.20 0.20 0.30 0.35 3.85 0.30 7.85 -0.05 8.95 -0.05 13.70 0.05 16.30 0.05 1.10 0 2.20 -0.10 2.45 -0.35 0.80 -0.45 3.30 -0.10 3.50 0.30 0.20 0.30 2.40 -0.15 12.60 -0.10 2.75 -0.05 5.30 0.10 5.60 0.20 0.25 0.25 2.30 0.10 4.45 -0.15 2.15 -0.15 4.75 0.05 5.80 0.15 1 0.20 1.95 0 2.05 -0.40 0.25 -0.35 8.40 0.05 9.05 0.15 0.30 0.30 2.10 0.35 4.10 0.05 2.60 0.30 4.10 1.05 5.40 0.55 1 1 2.10 1 2.55 0 1.05 2.25 5.35 3.20 6.15 0.45 0.40 0.80 0.85 0.80 1.10 0 0.20 0.90 1.35 2 2.50 1.90 2.05 2 2.05 5.75 2.20 2.10 0.10 3.95 0.25 4.10 0.45 0.15 0.15 0.70 0.05 1.25 -0.25 0.50 -0.25 1.10 -0.35 1.35 -0.20 0.25 0.15 13.65 0.35 29.75 0.45 16.15 0.10 29.50 0.30 29.65 0.50 0.15 0.15 0.75 0.20 1.35 0.05 2.25 -0.50 12.50 -0.60 14.15 -0.15 1 0.25 1.95 0.30 2.30 0 0.35 -0.25 1.50 -0.40 2.60 -0.30 3.80 0.25 15.30 0.25 15.75 -0.05 0.25 -0.15 0.55 -0.10 0.65 0.10 0.15 0.25 9.95 0.40 21.80 0.40 11.85 0 21.55 0.10 21.55 0.25 0 0.20 7.45 0.25 13.25 0 7.20 -0.25 25.55 0.15 26.10 0.60 0.35 0.25 0.90 0.30 1.25 0.05 0.85 -0.55 20.40 -0.50 20.40 0.05 0 0.20 0.60 0.25 1.40 0.10 1.75 -0.45 6.60 -0.65 6.60 -0.30 0 0.15 6.90 0.25 15.40 0.25 8.45 -0.05 15.60 0.15 15.95 0.40 0.35 0.25 0.85 0.30 1.20 0.10 0.30 -0.20 1.80 -0.35 3.35 -0.30 1.60 0 10.10 0.05 19 0.10 9.90 0.10 16.10 0.30 16.10 0.60 0 0.30 0.25 0.30 0.65 0 0.70 -0.50 32.85 -0.50 33.75 0.05 0.35 0.20 0.85 0.20 1.20 0 0.65 -0.40 11.80 -0.35 14.55 0.10 1.05 0.15 1.85 0.10 1.85 -0.20 0 -0.25 0.95 -0.40 2.15 -0.30 5.60 0.50 7.40 0.55 7.65 0.10 0.15 -0.20 0.50 -0.30 0.75 -0.10 0.30 0.15 9.95 0.35 21.40 0.45 11.50 0.10 21.40 0.30 22 0.50 0.60 0.20 1.35 0.10 1.70 -0.15 0.35 -0.30 1.60 -0.35 3.10 -0.10 1.40 0.20 4 0.30 5.90 0.25 1.85 -0.10 3.50 0.05 3.65 0.30 0.20 0.30 0.50 0.30 0.85 0 0.70 -0.55 9.85 -0.50 10.75 0.10 0.30 0.25 0.85 0.25 1.20 0.05 0.75 -0.45 11.95 -0.60 12.90 -0.15 0.40 0.20 2.75 0.20 5.15 0 2.40 -0.20 4.50 -0.25 4.60 -0.10 0.15 0.10 10.65 0.20 23.35 0.20 12.75 0 24.45 0.15 26 0.40 3.20 0.40 5.90 2 5.90 3.50 0 0.50 0.25 0.95 0.50 0.95 0.30 0 0.45 1.05 0.30 2.55 -0.15 2.10 -0.45 2.80 -1.75 4 -0.90 0.80 -1.95 1.45 -2.35 1.45 -0.40 0 -0.70 0.25 -0.70 0.50 0 0.30 -0.45 0.50 -1 0.50 -0.55 0 -1 0.15 -1 0.40 0 0.20 -2.85 0.30 -6.35 0.25 -8.60 -0.15 -49.75 -0.60 -91.90 -0.90 -18.95 -0.15 -43.40 -0.40 -54.25 -0.55 -10.85 -0.15 -20.20 -0.25 -20.75 -0.25 -0.55 0 -2.85 0.05 -5.10 0.10 -2.25 0 -4.30 -0.10 -4.60 -0.30 -0.30 -0.15 -0.95 -0.10 -1.40 0.20 -0.55 0.30 -1.20 0.30 -1.80 -0.05 -0.60 -0.30 -1.15 -0.30 -1.55 0.05 -0.45 0.35 -1.50 0.40 -3.10 0.15 -1.35 -0.20 -5.80 -0.30 -9.95 -0.20 -9.25 0.20 -5.75 0.20 -28 -0.05 -12.45 -0.15 -19.20 -0.05 -19.60 0.25 -0.45 0.35 -0.65 0.35 -0.65 -0.05 0 -0.35 -1.05 -0.50 -3 -0.35 -1.65 0.10 -3.15 -0.05 -3.30 -0.30 -0.20 -0.25 -0.90 -0.30 -1.65 -0.15 -0.70 0.20 -3.45 0.30 -6.05 0.25 -5 -0.15 -7.60 -0.15 -9.25 -0.05 -3.10 0.25 -21.10 -0.30 -21.60 -0.60 -0.30 -0.20 -0.70 -0.20 -0.80 0 -0.15 0.25 -7.40 0.35 -16.20 0.30 -28.80 -0.25 -55.90 -0.55 -56.15 -0.65 -0.15 -0.05 -0.45 -0.05 -0.75 0 -1.20 0.25 -18.35 0 -18.80 -0.25 -0.25 -0.20 -0.80 -0.05 -1.20 0.25 -0.40 0.30 -1 0.40 -1.35 0.20 -0.85 -0.55 -14.40 -0.65 -14.70 -0.10 -0.15 0.20 -0.50 0.25 -0.80 0.10 -0.45 -0.30 -5.15 -0.75 -7.15 -0.70 -0.25 0 -3.05 0.05 -6.15 0.15 -3.15 0.05 -5.80 -0.05 -5.90 -0.25 -0.15 -0.25 -0.65 -0.20 -1.15 0.10 -0.60 0.30 -1.10 0.25 -1.50 -0.15 -0.45 -0.45 -0.70 -0.45 -0.95 -0.05 -0.20 0.35 -1.25 0.50 -2.60 0.35 -1.25 -0.10 -5.85 -0.20 -10.25 -0.15 -4.40 0 -8.20 0 -8.50 0 -0.25 0 -10.50 -0.10 -22.75 -0.20 -12.25 -0.15 -23.25 -0.05 -24.45 0.20 -2.55 0.45 -7.80 -0.25 -11.10 -1.50 -1.80 -0.70 -2.50 -0.75 -3.30 -0.30 -1.05 0.55 -4.05 2.90 -5.65 4.40 -0.50 0.45 -1.05 0.70 -1.20 0.55 -0.15 -0.15 -0.85 0.45 -1.60 1.30 -1.15 1.40 -4.20 3.45 -4.20 2.85 0 -0.10 -0.95 0.70 -2.10 1.85 -1.20 1.15 -5.45 4.55 -9.55 7.55 -4.05 3 -7.35 5.65 -7.35 5.90 0 0.20 -0.35 0.40 -0.75 0.40 -0.45 0 -0.90 0.30 -1.05 0.70 -0.30 0.85 -4.20 3.55 -5.05 3.55 -0.35 0 -1.35 0.80 -2.25 1.80 -0.90 0.95 -2.65 2.55 -3.90 3.45 -1.25 0.90 -3.10 2.45 -4.10 3.45 -1.05 0.95 -1.90 1.55 -1.90 1.30 0 -0.25 -0.45 0 -0.95 0.55 -0.50 0.50 -1.90 1.75 -3.10 2.70 -1.15 0.95 -2.40 2.05 -2.75 2.40 -0.35 0.30 -0.85 0.60 -1.10 0.60 -0.25 0 -1.20 0.75 -2.15 1.65 -2.20 2.05 -5.75 4.85 -6.20 4.85 -0.20 0 -1.05 0.70 -1.85 1.50 -0.75 0.85 -1.60 1.50 -1.80 1.50 -0.20 0 -0.70 0.30 -1 0.65 -0.35 0.30 -0.80 0.60 -1 0.60 -0.20 0 -1.50 1.20 -2.95 2.65 -1.40 1.40 -2.75 2.60 -2.95 2.60 -0.55 0 -7.20 5.20 -7.20 5.60 0 0.25 -0.30 0.40 -0.70 0.40 -0.95 0 -9.65 8.30 -11.10 10.60 -1.70 2.65 -1.60 5.35 0.20 7.05 1.35 1.30 2.50 1.60 9.85 2.65 0.85 0.10 4.75 0.30 8.75 0.40 4 0.15 7.35 0.25 7.50 0.30 0.45 0.10 30.75 0.10 31.25 0 0.30 -0.05 0.60 -0.05 0.75 0 0.65 0.30 32.05 0.30 34.40 0 1.40 -0.20 2.75 -0.20 2.90 -0.05 0.15 0.15 11.50 0.35 25.20 0.35 13.70 0.05 25.10 0.20 25.35 0.35 0.25 0.15 2.65 0.10 5.35 -0.15 2.75 -0.25 5.45 -0.25 6 0 0.60 0.20 1.45 0.20 1.90 -0.05 0.45 -0.25 0.95 -0.30 1.10 -0.05 0.15 0.25 2.20 0.35 4.65 0.20 2.40 -0.10 4.65 -0.15 4.90 -0.15 10.05 0.25 16.80 0.25 17.95 -0.05 0.85 -0.20 1.60 -0.20 1.75 0 0.20 0.20 9.65 0.35 21.10 0.35 l20.80 0 -0.25 -3.05 c-0.10 -1.70 -0.10 -4.10 0.10 -5.35 0.40 -2.45 3.40 -7.60 4.75 -8.05 0.45 -0.10 1.50 -0.60 2.30 -1.10 2.60 -1.50 3.20 -1.70 4.65 -1.70 0.75 0 1.65 -0.25 1.90 -0.50 0.35 -0.35 4.30 -0.50 10.50 -0.50 9.90 0.05 11.50 0.05 15.10 -0.10 1 -0.05 3.30 -0.05 5.10 0 1.80 0.05 3.70 0.10 4.25 0.05 0.55 -0.05 4.15 -0.05 8 -0.05 3.85 0.05 7.35 0.05 7.75 0.05 2.35 -0.05 42.75 0.45 42.75 0.55 0 0 1.80 0.15 4 0.20 6.15 0.30 9.15 1.30 12 4.05 1.85 1.85 3.65 7.05 2.75 7.95 -0.30 0.30 -0.50 1.15 -0.50 2 0 2.05 -1.05 4.80 -1.85 4.80 -0.85 0 -0.85 1 0 1.05 0.30 0.05 5.80 0.10 12.20 0.15 6.40 0.05 11.75 0.25 12 0.45 0.20 0.20 0.70 0.20 1.10 0 0.45 -0.20 3.85 -0.30 7.55 -0.25z m-123.15 -0.45 c0.35 -0.35 1 -0.40 1.50 -0.25 0.50 0.20 16 0.40 34.40 0.45 28.45 0.05 33.75 -0.05 35.15 -0.65 0.85 -0.40 1.60 -0.90 1.60 -1.10 0 -0.25 0.30 -0.40 0.70 -0.40 1.25 0 2.90 -1.70 2.55 -2.60 -0.25 -0.70 -1 -0.85 -3.75 -0.80 -1.85 0 -3.65 -0.15 -3.95 -0.35 -0.35 -0.20 -0.90 -0.05 -1.30 0.25 -0.50 0.40 -1 0.45 -1.35 0.15 -0.75 -0.50 -10 -0.45 -10.85 0.05 -0.35 0.20 -0.85 0.15 -1.20 -0.10 -0.65 -0.50 -5.30 -0.50 -6.15 0 -0.25 0.20 -1.35 0.15 -2.45 -0.05 -1.10 -0.15 -3.35 -0.25 -5 -0.15 -1.65 0.10 -3.35 0.15 -3.75 0.10 -0.40 0 -7.75 -0.05 -16.35 -0.15 -8.55 -0.05 -15.70 -0.25 -15.85 -0.40 -0.20 -0.15 -1.35 -0.15 -2.70 0.05 -1.30 0.20 -2.75 0.20 -3.20 -0.05 -0.45 -0.25 -0.95 -0.25 -1.10 -0.05 -0.15 0.25 -2.40 0.35 -5 0.30 -2.95 -0.15 -4.85 0 -5.05 0.35 -0.25 0.35 -0.55 0.35 -0.95 0 -0.80 -0.65 -3.30 0 -4 1.05 -0.35 0.60 -0.30 1.20 0.15 2 0.80 1.55 4.40 2.30 11.30 2.40 2.75 0.05 5.10 0.15 5.20 0.30 0.35 0.35 0.80 0.25 1.40 -0.35z" transform="matrix(1, 0, 0, 1, 0, 3.552713678800501e-15)"/>
  <path d="M 565.8 742.541 C 565.65 742.196 563.65 742.023 561.4 742.138 C 559.1 742.196 556.95 741.965 556.65 741.677 C 556.2 741.332 555.75 741.389 555.25 741.85 C 554.8 742.311 554.25 742.368 553.9 742.08 C 553.1 741.447 551.95 741.447 551.1 742.08 C 550.7 742.368 550.2 742.311 549.9 741.965 C 549.6 741.62 548.85 741.562 547.85 741.908 C 546.9 742.196 546.1 742.196 545.75 741.85 C 545.4 741.562 545 741.447 544.8 741.677 C 544.3 742.253 540.35 742.368 539.75 741.792 C 539.5 741.562 538.35 741.562 537.25 741.792 C 535.05 742.196 526.55 742.08 526.1 741.62 C 525.95 741.447 525.6 741.562 525.25 741.85 C 524.9 742.196 524.1 742.196 523 741.85 C 522.1 741.562 521.15 741.447 520.95 741.62 C 520.55 741.85 506.35 741.85 499 741.62 C 497.2 741.504 495.4 741.677 494.95 741.908 C 494.5 742.196 494 742.253 493.85 742.023 C 493.3 741.447 480.8 741.389 480.2 741.965 C 479.85 742.253 478.35 742.253 476.45 741.908 C 474.5 741.504 473.1 741.504 472.8 741.85 C 472.55 742.138 472 742.138 471.55 741.908 C 470.5 741.217 467.9 741.274 467.15 741.965 C 466.85 742.253 466.45 742.253 466.3 741.965 C 466 741.332 461.5 741.389 460.65 742.023 C 460.35 742.253 459.95 742.196 459.8 741.965 C 459.45 741.332 448.15 741.504 446.9 742.138 C 446.35 742.368 446 742.311 446 741.965 C 446 741.62 445.05 741.447 443.65 741.562 C 442.3 741.62 440.95 741.447 440.65 741.159 C 440.25 740.756 440 740.756 440 741.101 C 440 741.677 430.2 741.677 429.7 741.101 C 429.55 740.929 428.65 741.044 427.7 741.389 C 426.45 741.735 425.75 741.735 425.25 741.274 C 424.8 740.871 424.25 740.813 423.65 741.159 C 423.15 741.447 419.7 741.562 416 741.447 C 412.3 741.274 407.8 741.217 406 741.217 C 404.2 741.274 402.3 741.274 401.75 741.274 C 401.2 741.217 400.45 741.217 400.15 741.274 C 396.95 741.562 390 741.101 390 740.583 C 390 740.295 389.75 740.237 389.4 740.468 C 388.55 741.101 375.35 741.101 374.6 740.468 C 374.2 740.18 373.55 740.18 372.85 740.525 C 372.25 740.813 370.35 740.986 368.65 740.929 C 366.9 740.871 365.4 741.044 365.25 741.332 C 365.05 741.62 364.6 741.62 364.1 741.332 C 363.35 740.871 361.85 740.641 359.75 740.698 C 359.35 740.698 358.6 740.698 358.15 740.698 C 357.65 740.698 356.35 740.756 355.25 740.756 C 352.9 740.871 352.45 740.871 349.75 740.525 C 348.65 740.41 347.45 740.583 347.15 740.871 C 346.75 741.217 346.25 741.217 345.9 740.871 C 345.55 740.583 344.15 740.468 342.75 740.525 C 341.4 740.641 339.95 740.698 339.65 740.698 C 338.7 740.698 337.5 740.698 334.75 740.756 C 333.4 740.756 332.25 740.756 332.25 740.698 C 332.25 740.468 311.45 740.525 311.25 740.813 C 311.1 740.986 310.15 740.929 309.15 740.698 C 308.2 740.41 306.1 740.295 304.5 740.468 C 302.95 740.583 300.25 740.468 298.55 740.237 C 296.85 739.949 295.4 739.892 295.3 740.065 C 295.1 740.41 284.45 740.41 276 740.122 C 273.95 740.065 271.9 740.18 271.45 740.41 C 270.95 740.583 269.75 740.525 268.65 740.18 C 267.35 739.777 266.15 739.777 265 740.122 C 264.05 740.41 262.95 740.583 262.5 740.41 C 262.1 740.237 251.4 740.007 238.75 739.777 C 212.85 739.431 212.95 739.431 212.2 738.855 C 211.9 738.625 210.8 738.279 209.8 738.164 C 206.85 737.761 203.45 734.651 202.2 731.195 C 201.5 729.179 201.35 723.65 201.9 721.232 C 202.3 719.677 209.4 710.749 210.25 710.749 C 210.6 710.749 211.45 710.116 212.2 709.31 C 212.95 708.503 213.7 707.87 213.85 707.87 C 214 707.87 214.85 707.179 215.75 706.315 C 218.85 703.262 219.5 702.686 220.05 702.686 C 220.3 702.686 221 702.168 221.6 701.535 C 222.2 700.901 222.95 700.383 223.3 700.383 C 223.6 700.383 224 699.864 224.15 699.231 C 224.3 698.597 224.8 698.079 225.25 698.079 C 226.2 698.079 229.7 696.063 231.15 694.681 C 232.2 693.644 238.7 691.168 240.25 691.168 C 240.85 691.168 241.65 690.765 242 690.304 C 242.4 689.728 242.85 689.613 243.45 690.016 C 244.25 690.477 246.65 690.131 248.6 689.152 C 249.05 688.922 249.75 688.979 250.1 689.209 C 250.9 689.785 255.05 689.843 255.35 689.267 C 255.45 689.037 256.7 688.979 258.05 689.209 C 259.6 689.44 261.05 689.325 262.05 688.864 C 263.3 688.23 263.65 688.23 264 688.864 C 264.3 689.382 265.5 689.497 268.7 689.325 C 271.1 689.209 273.15 689.267 273.3 689.555 C 273.45 689.785 273.95 689.67 274.5 689.325 C 275.2 688.806 275.6 688.806 276.1 689.325 C 276.5 689.67 277.05 689.728 277.5 689.44 C 277.9 689.152 278.35 689.037 278.55 689.209 C 279.25 689.67 283 689.901 283.25 689.44 C 283.35 689.209 284.45 689.094 285.6 689.267 C 286.8 689.382 288.3 689.44 289 689.382 C 290.5 689.267 291.25 689.325 293.35 689.67 C 294.25 689.785 295.75 689.67 296.75 689.44 C 297.75 689.152 298.65 689.209 298.8 689.555 C 298.95 689.843 299.4 689.785 299.85 689.382 C 300.45 688.806 300.65 688.806 301 689.44 C 301.3 690.016 301.85 690.073 303.55 689.555 C 304.75 689.209 305.95 689.152 306.25 689.382 C 306.5 689.613 308.45 689.785 310.5 689.67 C 312.55 689.613 315.25 689.785 316.45 690.073 C 317.9 690.419 318.75 690.419 318.95 690.073 C 319.3 689.44 324.2 689.497 324.75 690.131 C 324.95 690.361 325.55 690.189 326.05 689.843 C 326.85 689.267 327.15 689.325 327.55 690.016 C 327.95 690.649 328.15 690.707 328.35 690.189 C 328.65 689.267 329.85 689.209 330.1 690.131 C 330.25 690.592 330.65 690.649 331.3 690.304 C 332.6 689.613 339.45 689.497 339.8 690.131 C 339.95 690.419 340.4 690.304 340.85 689.958 C 341.4 689.382 341.65 689.382 341.95 689.958 C 342.3 690.534 342.55 690.534 343.45 689.958 C 344.35 689.267 344.7 689.267 345.6 689.958 C 346.4 690.534 346.75 690.534 346.9 690.073 C 347 689.728 347.4 689.44 347.75 689.44 C 348.1 689.44 348.5 689.728 348.6 690.073 C 348.75 690.592 349.1 690.534 349.85 689.958 C 350.7 689.382 351.05 689.382 351.65 689.958 C 352.15 690.419 352.5 690.419 352.75 690.073 C 352.95 689.67 353.4 689.728 354.05 690.189 C 354.8 690.707 355.1 690.707 355.4 690.189 C 355.8 689.44 357.85 689.497 358.95 690.246 C 359.35 690.534 359.8 690.419 360.05 689.958 C 360.45 689.267 360.6 689.267 361 690.016 C 361.45 690.765 361.55 690.765 362 690.016 C 362.35 689.325 362.6 689.325 363.1 689.901 C 363.85 690.765 366 690.822 366 690.016 C 366 689.613 366.3 689.613 366.95 690.016 C 368.3 690.822 369.85 690.765 370.15 689.901 C 370.35 689.325 370.5 689.325 371.05 689.901 C 371.4 690.246 372.65 690.592 373.8 690.592 C 375.05 690.592 376 690.304 376.15 689.901 C 376.35 689.325 376.55 689.325 376.85 689.785 C 377.45 690.765 385.55 690.822 386.1 689.901 C 386.4 689.325 386.6 689.325 386.95 689.958 C 387.35 690.649 387.55 690.649 388.15 690.073 C 388.75 689.555 388.95 689.555 389.1 690.073 C 389.2 690.477 390.05 690.707 391.05 690.649 C 393.25 690.477 393.45 690.534 395.35 690.937 C 396.2 691.11 397.3 691.052 397.75 690.765 C 398.2 690.419 399.8 690.419 401.6 690.707 C 403.25 690.937 404.9 690.937 405.2 690.707 C 405.5 690.419 407.1 690.304 408.75 690.477 C 412.15 690.707 414.8 690.822 416.25 690.649 C 416.8 690.592 420.75 690.649 425 690.765 C 429.3 690.88 433 690.765 433.35 690.477 C 433.7 690.131 434.3 690.189 434.95 690.534 C 436 691.225 441.9 691.11 442.85 690.419 C 443.1 690.189 443.5 690.246 443.7 690.477 C 443.9 690.707 451 690.88 459.4 690.937 C 467.85 690.995 475.25 691.168 475.9 691.398 C 476.55 691.628 477.3 691.571 477.65 691.283 C 478 690.937 479.1 690.88 480.45 691.168 C 481.7 691.398 483.15 691.456 483.7 691.225 C 484.85 690.765 490.55 690.822 491.3 691.283 C 491.9 691.628 494.5 691.456 495.9 690.937 C 496.55 690.649 497 690.765 497 691.11 C 497 691.974 498.85 691.916 499.15 691.052 C 499.35 690.477 499.55 690.477 499.9 691.11 C 500.3 691.744 501.2 691.859 503.85 691.571 C 505.7 691.398 507.65 691.052 508.15 690.88 C 508.75 690.592 509 690.765 509 691.398 C 509 692.147 509.3 692.262 510.4 691.974 C 511.15 691.744 512.05 691.34 512.4 690.995 C 512.85 690.592 513.4 690.649 514.3 691.168 C 515.2 691.744 515.65 691.801 516.1 691.283 C 516.5 690.822 516.95 690.822 517.6 691.225 C 518.2 691.628 519.2 691.571 520.6 691.11 C 522.15 690.649 522.75 690.649 522.9 691.11 C 523.15 691.916 525.35 691.974 525.75 691.168 C 526.1 690.477 528 690.361 528 691.052 C 528 691.686 535.9 691.859 536.25 691.168 C 536.7 690.361 538.35 690.419 538.65 691.34 C 538.8 691.859 539.1 691.859 539.9 691.34 C 540.45 690.995 541.05 690.822 541.25 691.052 C 541.75 691.628 556 691.686 556.3 691.052 C 556.45 690.765 556.85 690.822 557.25 691.168 C 557.65 691.571 558.3 691.571 559.15 691.225 C 559.9 690.88 560.55 690.822 560.7 691.11 C 560.85 691.34 562.5 691.513 564.35 691.456 C 566.25 691.398 567.9 691.628 568.15 691.974 C 568.4 692.377 568.75 692.204 569.25 691.513 C 569.65 690.88 570 690.649 570 690.937 C 570 691.744 582 691.859 582.8 691.11 C 583.2 690.707 583.55 690.765 583.75 691.168 C 584 691.628 586.05 691.801 589.95 691.744 C 593.15 691.744 597.1 691.744 598.75 691.801 C 600.4 691.859 603.85 691.744 606.4 691.571 C 608.9 691.398 611.1 691.513 611.25 691.744 C 611.4 692.032 612.15 692.032 612.9 691.859 C 613.65 691.628 618.65 691.571 624 691.744 C 629.85 691.916 633.9 691.801 634.1 691.513 C 634.3 691.168 634.65 691.168 635.1 691.513 C 635.45 691.801 636.65 691.974 637.75 691.916 C 640.2 691.686 638.5 691.628 655.25 691.974 C 662.95 692.147 669.6 692.262 670 692.262 C 678.8 692.147 681.85 691.974 682.3 691.628 C 682.65 691.34 683.8 691.513 684.85 691.974 C 685.95 692.435 687.15 692.608 687.5 692.32 C 688.35 691.744 692.75 692.953 695.45 694.566 C 698.65 696.466 700.4 698.943 700.8 702.053 C 701 703.493 701.3 704.99 701.55 705.336 C 701.95 705.912 701.1 710.058 700.1 712.247 C 699.85 712.88 699.3 714.09 698.95 715.011 C 698.1 717.085 694.95 721.116 694.15 721.116 C 693.85 721.116 692.7 722.038 691.65 723.132 C 688.25 726.645 678.4 734.075 674.85 735.803 C 673 736.667 671.25 737.761 670.95 738.164 C 670.65 738.625 670.2 738.798 669.95 738.625 C 669.7 738.51 668.85 738.74 668 739.258 C 667.15 739.777 665.75 740.295 664.85 740.353 C 663.95 740.468 662.9 740.756 662.45 740.986 C 661.95 741.159 661.3 741.274 660.95 741.217 C 660.25 741.101 658.85 741.562 657.4 742.426 C 656.95 742.714 655.85 742.714 654.8 742.368 C 653.8 742.023 652.7 741.965 652.35 742.253 C 651.5 742.887 628.8 742.829 628.45 742.196 C 628.25 741.908 627.8 741.908 627.45 742.196 C 626.5 742.887 619.05 743.06 617.2 742.484 C 616.2 742.138 615.4 742.196 615.1 742.541 C 614.8 742.887 614.25 742.887 613.65 742.484 C 612.95 742.08 612.5 742.08 612.05 742.599 C 611.6 743.117 611.25 743.117 610.55 742.599 C 609.9 742.138 609.5 742.08 609.1 742.541 C 608.7 743.002 608.35 743.002 607.85 742.541 C 607.35 742.08 607.05 742.023 606.65 742.484 C 606.25 742.944 605.4 743.002 604.15 742.656 C 603.1 742.426 601.9 742.253 601.5 742.311 C 598.65 742.714 580.4 742.253 579.7 741.735 C 579.4 741.504 579 741.504 578.8 741.677 C 578.2 742.426 572 742.368 572 741.677 C 572 741.274 571.65 741.447 571.3 742.023 C 570.7 742.887 570.55 742.944 570 742.138 C 569.55 741.504 569.2 741.447 568.75 741.85 C 568.45 742.138 568 742.253 567.85 742.023 C 567.65 741.85 567.2 742.023 566.8 742.368 C 566.4 742.772 565.95 742.829 565.8 742.541 L 565.8 742.541 Z M 638 726.588 C 642.25 726.703 646 726.473 646.35 726.185 C 646.7 725.897 647.05 725.897 647.25 726.3 C 647.4 726.588 648.1 726.876 648.75 726.876 C 649.4 726.876 650.1 726.588 650.25 726.3 C 650.5 725.839 650.8 725.839 651.2 726.242 C 651.65 726.703 652.65 726.645 654.55 726.069 C 656.05 725.609 658.25 725.09 659.5 724.86 C 660.75 724.63 662 724.169 662.35 723.881 C 662.7 723.535 663.8 723.247 664.8 723.132 C 665.8 723.017 666.95 722.556 667.4 722.095 C 667.9 721.635 669.7 720.368 671.45 719.331 C 675.65 716.912 677.4 715.53 680.75 712.017 C 684.3 708.273 684.4 707.639 681.45 707.812 C 680.1 707.87 678.95 707.639 678.75 707.294 C 678.5 706.891 678.2 706.833 677.8 707.236 C 677.45 707.582 673.9 707.755 668.75 707.639 C 664.05 707.582 660 707.697 659.65 707.985 C 659.3 708.331 658.75 708.331 658.4 708.1 C 657.55 707.467 646.5 707.409 646.15 708.043 C 646.05 708.273 645.65 708.273 645.35 707.985 C 645 707.697 636.2 707.467 625.75 707.409 C 592.05 707.236 573.75 706.891 572.9 706.43 C 572.4 706.2 572 706.257 572 706.603 C 572 707.179 566.6 707.409 565.8 706.833 C 565.1 706.372 562.85 706.43 562.15 706.891 C 561.8 707.121 560.65 707.064 559.55 706.776 C 558.4 706.488 557.4 706.43 557.3 706.66 C 557 707.179 540.55 707.006 539.15 706.488 C 538.5 706.257 537.65 706.315 537.15 706.66 C 536.6 706.948 535.95 707.006 535.45 706.66 C 534.9 706.372 534 706.43 533 706.833 C 531.75 707.294 531.3 707.294 531 706.66 C 530.65 706.084 530.45 706.084 529.8 706.66 C 529.4 707.064 528.6 707.236 528.1 707.064 C 527.55 706.833 522.45 706.718 516.7 706.718 C 504.25 706.718 505.9 706.776 494.75 706.66 C 489.8 706.603 485.35 706.315 484.85 706.027 C 484.3 705.681 483.7 705.681 483.35 706.027 C 483 706.372 474.75 706.488 462.75 706.372 C 427.7 705.969 365.8 705.508 364.5 705.624 C 363.8 705.681 362.9 705.681 362.5 705.681 C 362.1 705.681 349.55 705.566 334.7 705.393 C 319.8 705.278 307.45 704.99 307.2 704.817 C 306.95 704.645 305.5 704.76 304 705.048 C 302.5 705.336 300.9 705.393 300.45 705.278 C 300.05 705.105 288.65 704.99 275.2 704.933 C 255.05 704.933 250.3 705.105 248.1 705.796 C 246.6 706.257 245.1 706.488 244.75 706.372 C 244.4 706.2 242.55 706.948 240.6 708.043 C 238.65 709.137 236.9 709.886 236.75 709.655 C 236.55 709.482 236.1 709.77 235.75 710.346 C 235.4 710.922 234.75 711.441 234.35 711.556 C 233.95 711.613 232.75 712.477 231.7 713.514 C 229.1 715.991 229.15 715.991 225.95 717.891 C 224.4 718.813 222.25 720.425 221.2 721.462 L 219.25 723.362 L 221.75 723.478 C 223.15 723.535 225.05 723.65 226 723.708 C 228.55 723.996 234.55 723.996 236.4 723.708 C 237.25 723.593 238.1 723.708 238.25 724.054 C 238.45 724.342 238.95 724.342 239.55 723.938 C 240.1 723.593 240.95 723.535 241.4 723.708 C 241.85 723.938 244.3 724.054 246.75 723.996 C 255.4 723.766 263.7 724.054 264.55 724.63 C 265.05 724.918 265.55 724.918 265.7 724.687 C 266 724.054 295.55 724.169 296.4 724.802 C 296.75 725.033 297.3 725.033 297.6 724.802 C 298.3 724.284 312.5 724.111 312.5 724.572 C 312.5 725.033 316.2 724.86 316.85 724.399 C 317.15 724.169 317.6 724.226 317.75 724.572 C 317.95 724.918 318.55 725.033 319.1 724.802 C 320.65 724.226 323.7 724.169 324.05 724.687 C 324.2 724.918 325.05 724.86 326 724.572 C 326.95 724.284 327.8 724.226 327.95 724.457 C 328.2 724.802 330.25 724.86 336.25 724.572 C 339.9 724.342 408.55 725.148 408.85 725.321 C 409.1 725.493 409.6 725.436 410 725.148 C 410.4 724.86 411.05 724.86 411.5 725.148 C 411.95 725.436 412.6 725.436 413 725.148 C 413.45 724.86 413.95 724.86 414.35 725.205 C 414.7 725.551 415.2 725.666 415.5 725.436 C 415.95 725.09 426.5 724.86 427.15 725.148 C 427.3 725.205 439.65 725.263 440.25 725.148 C 440.55 725.148 444.25 725.148 448.5 725.205 C 452.75 725.263 462.8 725.321 470.85 725.378 C 481.5 725.493 485.65 725.724 486.15 726.242 C 486.7 726.703 486.95 726.761 487.1 726.3 C 487.35 725.436 494.15 725.033 494.55 725.839 C 494.75 726.185 495.2 726.127 495.85 725.724 C 496.5 725.205 497.45 725.148 498.8 725.436 C 499.85 725.724 501 725.839 501.25 725.724 C 501.55 725.666 503.65 725.609 506 725.666 C 508.35 725.724 513.65 725.724 517.85 725.724 C 522.2 725.724 525.55 725.954 525.75 726.3 C 525.9 726.588 526.5 726.645 527.2 726.357 C 527.8 726.069 535.05 725.954 543.3 726.069 C 551.5 726.242 558.6 726.3 559 726.3 C 563.6 726.069 585.65 726.3 586.4 726.53 C 586.95 726.761 587.9 726.645 588.6 726.357 C 589.3 726.069 591.55 726.069 594.2 726.357 C 597 726.703 598.9 726.645 599.5 726.3 C 600 725.954 600.55 725.954 600.7 726.185 C 600.9 726.588 606.95 726.703 608.25 726.3 C 608.55 726.242 608.85 726.242 609 726.3 C 609.15 726.357 613.55 726.415 618.85 726.473 C 624.1 726.53 628.6 726.761 628.8 726.991 C 629 727.221 629.4 727.221 629.7 726.991 C 630 726.703 633.75 726.53 638 726.588 L 638 726.588 Z" style="" transform="matrix(1, 0, 0, 1, 0, 3.552713678800501e-15)"/>
  <path d="M550 649.50 c0 -0.25 -1.35 -0.40 -3.10 -0.30 -1.75 0.10 -3.40 0 -3.75 -0.25 -0.30 -0.30 -0.65 -0.30 -0.80 -0.10 -0.15 0.20 -7.55 0.35 -16.45 0.30 -8.85 -0.05 -18.40 -0.10 -21.15 -0.10 -2.75 0 -5.35 0 -5.75 0 -0.40 -0.05 -25.80 -0.15 -56.35 -0.25 -30.60 -0.10 -56.30 -0.35 -57.15 -0.55 -0.95 -0.20 -1.80 -0.10 -2.30 0.30 -0.50 0.40 -0.90 0.45 -1.25 0.10 -0.30 -0.30 -1.30 -0.35 -2.60 -0.15 -1.10 0.25 -2.60 0.20 -3.25 -0.05 -0.80 -0.30 -1.80 -0.30 -2.85 0.05 -0.90 0.30 -1.90 0.40 -2.30 0.25 -0.75 -0.25 -30.70 -0.75 -45.95 -0.70 -5.10 0 -9.70 0 -10.25 0 -0.55 0 -5.50 -0.10 -11 -0.25 -5.50 -0.15 -10.45 -0.25 -11 -0.25 -1.65 0 -1.90 0 -3.75 -0.30 -0.95 -0.10 -3.40 -0.50 -5.45 -0.80 -2.05 -0.30 -4.20 -0.80 -4.75 -1.05 -0.60 -0.30 -1.50 -0.75 -2 -1.05 -5.15 -2.55 -7.80 -4.80 -10.90 -9.25 -1.80 -2.60 -3.90 -7.75 -3.90 -9.60 0 -0.70 -0.25 -1.55 -0.60 -1.90 -0.30 -0.30 -0.65 -2 -0.75 -3.70 -0.15 -2.60 -0.20 -36.20 -0.15 -81.15 0.05 -4.40 0 -8 0 -8 -0.25 0 -0.05 -19.75 0.20 -20.15 0.15 -0.30 0.05 -0.70 -0.25 -0.85 -0.25 -0.20 -0.35 -0.70 -0.15 -1.20 0.20 -0.45 0.30 -2.70 0.20 -5.05 -0.25 -8.85 -0.25 -15.50 0 -15.50 0.40 0 0.15 -36.25 -0.25 -37.45 -0.15 -0.55 -0.20 -1.25 0 -1.55 0.15 -0.25 0.35 -10.80 0.45 -23.35 l0.15 -22.90 1.30 -4.25 c2.10 -6.70 4.05 -10.05 8.05 -13.90 6.50 -6.35 12.05 -8.05 28.30 -8.85 1.50 -0.05 2.85 -0.20 3 -0.25 0.15 -0.05 1.85 -0.05 3.75 0 9.50 0.25 18.85 0.20 19.05 -0.10 0.15 -0.20 0.80 -0.15 1.50 0.10 0.70 0.30 2.60 0.50 4.25 0.50 4.10 0 6.25 1 7.25 3.35 0.45 1.05 1 2.25 1.20 2.65 0.20 0.40 0.35 1.70 0.40 2.85 0.10 3.05 1.90 7.40 3.65 8.85 1.45 1.25 4.30 2.30 6.10 2.30 1.55 0 4.75 -1.90 6 -3.60 0.70 -0.90 1.50 -2.90 1.85 -4.40 0.30 -1.50 0.90 -3.40 1.30 -4.15 0.40 -0.80 0.70 -2 0.70 -2.70 0 -0.80 0.70 -1.95 1.95 -3.20 1.75 -1.75 2.20 -1.95 4.60 -2 1.50 -0.05 4.45 -0.10 6.60 -0.20 2.10 -0.05 4 0.05 4.15 0.30 0.15 0.25 0.55 0.30 0.85 0.10 0.80 -0.50 4.65 -0.60 5.40 -0.10 0.35 0.20 1.05 0.15 1.50 -0.10 0.55 -0.30 1 -0.25 1.20 0.05 0.15 0.25 0.75 0.50 1.30 0.50 1.30 0 3.60 2.35 3.25 3.25 -0.15 0.40 -0.05 0.85 0.20 1 0.30 0.20 0.50 0.75 0.50 1.30 0 0.50 0.20 0.95 0.45 0.95 0.25 0 0.75 1.30 1.10 2.85 1.40 6.25 6.80 9.20 12.25 6.70 2.80 -1.30 4.15 -3.60 4.40 -7.60 0.25 -4.05 1.75 -7.40 3.85 -8.65 1.55 -0.90 3.85 -0.95 69.50 -1.05 37.30 -0.10 68.05 -0.25 68.35 -0.45 0.25 -0.15 0.60 -0.15 0.80 0.05 0.20 0.20 48.35 0.35 52.05 0.10 0.30 0 8.95 0 19.25 0.05 10.30 0.05 19 0 19.25 -0.05 0.30 -0.05 0.75 0 1 0.05 0.30 0.10 20.30 0.20 44.50 0.30 50.10 0.15 57.25 0.25 57.25 0.70 0 0.20 0.60 0.35 1.40 0.35 2.10 0 7.20 1.70 8.95 3 0.85 0.60 1.75 1.15 1.95 1.15 0.20 0 0.80 0.50 1.40 1.15 0.60 0.60 1.80 1.65 2.65 2.35 2.70 2.20 6.10 8.95 7.60 15.30 0.95 3.90 1.10 6.05 1.15 16 0 6.30 0 13.35 0 15.70 -0.05 2.35 -0.05 4.80 0 5.50 0.05 0.70 0 3.05 0 5.25 -0.05 2.20 -0.10 4.35 -0.05 4.75 0 0.40 -0.15 32.50 -0.30 71.25 -0.20 38.80 -0.35 71.05 -0.35 71.75 0.25 20.25 -0.05 31.55 -0.95 36.25 -1.40 7.35 -6.30 14.05 -13.50 18.50 -2.50 1.55 -5.40 2.95 -6.40 3.10 -1 0.15 -2.25 0.50 -2.75 0.80 -1.85 0.95 -18.15 1.50 -18.45 0.60 -0.10 -0.30 -0.60 -0.30 -1.40 0.05 -1.20 0.55 -7.80 0.55 -8.30 0 -0.15 -0.15 -0.65 -0.10 -1.10 0.15 -0.45 0.25 -5.95 0.35 -12.30 0.30 -7.45 -0.05 -11.75 0.05 -12.15 0.40 -0.50 0.40 -0.80 0.35 -1 0 -0.40 -0.60 -4 -0.60 -4.95 0 -0.30 0.20 -0.70 0.15 -0.90 -0.10 -0.35 -0.60 -4.65 -0.60 -5.05 0 -0.15 0.25 -0.70 0.15 -1.25 -0.20 -0.80 -0.50 -1.05 -0.45 -1.45 0.15 -0.30 0.45 -0.50 0.50 -0.50 0.15 0 -0.65 -5.65 -0.70 -6.30 0 -0.20 0.20 -0.65 0.10 -1.05 -0.20 -0.45 -0.40 -0.85 -0.40 -1.30 0 -0.40 0.30 -0.90 0.35 -1.15 0.15 -0.25 -0.20 -3.05 -0.25 -6.20 -0.10 -4.15 0.20 -5.90 0.10 -6.25 -0.30 -0.40 -0.45 -0.80 -0.45 -1.45 -0.10 -0.60 0.35 -4 0.45 -8.75 0.40 -4.30 -0.10 -8.70 -0.15 -9.80 -0.10 -5.20 0.15 -16.45 0.05 -16.80 -0.20 -0.25 -0.15 -0.85 0 -1.40 0.25 -0.60 0.35 -1.50 0.35 -2.55 0.05 -1.10 -0.30 -1.90 -0.30 -2.25 0 -0.35 0.25 -0.75 0.35 -0.90 0.20 -0.35 -0.35 -4.80 -0.60 -5.10 -0.25 -0.15 0.10 -1.40 0.15 -2.85 0.10 -5.50 -0.15 -6.15 -0.15 -6.95 0.20 -0.50 0.15 -1 0.05 -1.20 -0.25 -0.25 -0.40 -0.55 -0.40 -1.05 0.05 -0.40 0.30 -0.70 0.40 -0.70 0.15 0 -0.55 -33.55 -0.60 -34.40 -0.05 -0.35 0.25 -0.90 0.20 -1.25 -0.05 -0.75 -0.60 -4.80 -0.60 -5.15 -0.05 -0.35 0.60 -1.20 0.55 -1.20 -0.05z m34.45 -14.80 c2.95 -0.05 5.55 0.10 5.80 0.30 0.30 0.25 1.65 0.25 3 0.05 3 -0.45 7.80 -0.40 8.55 0.10 0.30 0.15 1.20 0.15 2 -0.05 1.55 -0.40 4.75 -0.40 11.60 0 2.25 0.15 4.20 0.15 4.30 -0.05 0.20 -0.25 5 -0.30 5.80 -0.05 0.15 0.05 2.05 0.05 4.25 0 2.20 -0.05 4.45 -0.05 5 -0.05 3.10 0.05 7.75 0.05 8.10 0 0.20 -0.05 0.65 0 0.90 0.05 0.60 0.10 16.40 0.10 16.75 -0.05 0.15 0 0.75 0 1.40 0.05 1.45 0.10 1.40 -0.20 -0.60 -3.20 -3.60 -5.45 -6.35 -12.45 -7.30 -18.50 -0.80 -5.35 0 -16.55 1.50 -20.80 0.35 -0.95 0.80 -2.20 1 -2.75 0.55 -1.50 1.85 -4.25 3.30 -6.75 1.20 -2.20 7.50 -9 8.35 -9 0.20 0 1 -0.55 1.70 -1.20 0.75 -0.70 1.50 -1.15 1.75 -1 0.20 0.15 1.05 -0.20 1.90 -0.80 0.80 -0.55 2.20 -1.10 3.10 -1.20 0.95 -0.05 2.15 -0.40 2.80 -0.75 0.65 -0.35 3.20 -0.60 6.25 -0.60 5.70 0 11.30 1.20 15.65 3.35 3.55 1.80 8.05 5.45 9.30 7.50 0.55 0.95 1.20 1.70 1.45 1.70 0.75 0 0.50 -1.60 -0.80 -6.05 -3.80 -12.60 -8.35 -25.45 -13.20 -36.90 -2.60 -6.10 -12.60 -26.60 -14.40 -29.45 -0.90 -1.45 -1.65 -2.85 -1.65 -3.15 0 -0.25 -2.40 -4.35 -5.35 -9.10 -2.90 -4.75 -5.90 -9.60 -6.55 -10.85 -0.70 -1.25 -1.70 -2.70 -2.20 -3.30 -0.50 -0.60 -1.65 -2.20 -2.55 -3.60 -0.90 -1.40 -3.40 -5.10 -5.60 -8.15 -2.20 -3.10 -5.25 -7.35 -6.75 -9.45 -4.05 -5.65 -13.05 -17.10 -16.70 -21.25 -0.95 -1.10 -2.40 -2.80 -3.15 -3.75 -0.75 -1 -2.25 -2.60 -3.25 -3.60 -1.05 -1 -1.90 -2.05 -1.90 -2.35 0 -0.40 -19.90 -20.55 -25.25 -25.50 -1.90 -1.80 -3.75 -3.10 -6 -4.30 -1 -0.55 -7.85 -0.55 -12.25 -0.05 -1.25 0.15 -3.50 0.40 -5 0.60 -1.50 0.15 -3.30 0.35 -4 0.40 -0.70 0.05 -1.50 0.25 -1.85 0.45 -0.35 0.20 -1.45 0.40 -2.50 0.45 -1.05 0.05 -2.05 0.25 -2.20 0.55 -0.20 0.25 -1.85 0.50 -3.75 0.55 -1.90 0 -3.75 0.25 -4.10 0.50 -0.35 0.20 -1.25 0.25 -1.90 0.10 -0.85 -0.25 -1.15 -0.15 -0.95 0.20 0.20 0.35 -0.10 0.45 -0.95 0.20 -0.85 -0.20 -1.30 -0.10 -1.30 0.30 0 0.40 -0.50 0.50 -1.35 0.35 -0.75 -0.15 -1.75 -0.05 -2.25 0.20 -0.45 0.25 -2.45 0.65 -4.45 0.95 -2 0.30 -3.90 0.75 -4.20 1 -0.30 0.25 -1.25 0.45 -2.05 0.40 -0.80 0 -2.55 0.25 -3.95 0.55 -1.35 0.35 -3.05 0.70 -3.75 0.75 -3.35 0.50 -4.95 0.80 -7.50 1.55 -2.65 0.75 -3.60 0.95 -6.10 1.45 -0.65 0.15 -2.95 0.75 -5.15 1.30 -2.20 0.60 -4.45 1.10 -5 1.15 -0.55 0.05 -1.30 0.30 -1.65 0.50 -0.35 0.25 -0.95 0.30 -1.35 0.15 -0.40 -0.15 -0.85 -0.05 -1 0.20 -0.30 0.45 -4.25 1.20 -4.80 0.90 -0.15 -0.10 -0.60 0.10 -1 0.40 -0.40 0.30 -1.95 0.85 -3.45 1.20 -1.50 0.30 -4.45 1.10 -6.50 1.75 -2.05 0.65 -4.55 1.30 -5.50 1.50 -1.70 0.30 -5.15 1.40 -7.25 2.25 -0.55 0.25 -1.55 0.55 -2.25 0.70 -0.70 0.10 -2.15 0.50 -3.25 0.80 -1.10 0.30 -2.35 0.65 -2.75 0.70 -0.40 0.10 -1.10 0.30 -1.50 0.45 -1.10 0.40 -4.65 1.55 -5.25 1.65 -0.25 0.05 -1.15 0.40 -2 0.75 -0.80 0.35 -2.05 0.70 -2.75 0.75 -0.70 0.10 -2.15 0.55 -3.25 1 -3.45 1.40 -5.45 2.15 -9.50 3.40 -2.15 0.65 -8.05 3 -9 3.60 -0.55 0.30 -1.85 0.75 -2.85 0.90 -1.05 0.20 -2.20 0.70 -2.65 1.15 -0.45 0.40 -0.90 0.65 -1.05 0.50 -0.25 -0.25 -8.20 2.80 -10.45 4 -0.55 0.30 -2 0.85 -3.25 1.20 -1.25 0.40 -3.80 1.50 -5.75 2.50 -1.90 1 -4.35 2.10 -5.40 2.45 -1.10 0.35 -3.20 1.35 -4.75 2.20 -1.60 0.85 -3.65 1.90 -4.60 2.30 -1.50 0.60 -5.75 2.85 -19.70 10.40 -1.65 0.95 -3.50 2.10 -4.05 2.55 -0.55 0.50 -1.40 1.05 -1.90 1.20 -1.25 0.45 -10.55 6.50 -10.75 6.95 -0.10 0.25 -0.40 0.40 -0.70 0.40 -0.60 0 -2.45 1.35 -10.90 8.15 -15.75 12.60 -29.05 27.85 -35.25 40.40 -0.95 1.90 -2.05 3.95 -2.50 4.55 -0.40 0.65 -0.75 1.50 -0.75 2 0 0.50 -0.65 2.05 -1.40 3.50 -3.75 7 -6.60 20.65 -6.60 31.35 0 7.50 1.45 17.75 3 21.75 0.55 1.35 1 2.75 1 3.20 0 1.45 6.90 14.90 9.80 19.15 6.55 9.50 15.60 18.30 23.45 22.70 l2.50 1.40 26.40 0.10 c14.50 0.05 26.50 0.25 26.65 0.40 0.20 0.20 0.70 0.10 1.20 -0.15 0.50 -0.25 1 -0.35 1.15 -0.20 0.15 0.15 16.05 0.30 35.30 0.35 19.30 0.05 35.05 0.30 35.05 0.50 0 0.25 0.50 0.25 1.15 0.05 1.30 -0.45 13.70 -0.35 14.40 0.10 0.30 0.15 0.80 0 1.20 -0.30 0.50 -0.40 0.95 -0.45 1.40 -0.15 0.35 0.30 2.20 0.35 4.60 0.15 2.20 -0.20 4.25 -0.20 4.55 0.05 0.30 0.25 0.70 0.30 0.85 0.15 0.30 -0.30 11.25 -0.45 11.60 -0.15 0.35 0.35 27.10 0.10 27.70 -0.25 0.30 -0.20 1.05 -0.20 1.65 0 1.85 0.55 40.85 0.55 41.15 -0.05 0.10 -0.30 0.50 -0.15 0.85 0.35 0.35 0.45 0.85 0.70 1.10 0.55 0.25 -0.20 2.85 -0.35 5.75 -0.45z m137.35 -113.60 c0.60 -0.45 1.80 -1.95 2.65 -3.25 1.20 -1.80 2.30 -2.70 4.25 -3.55 4.55 -2 5.55 -4.75 2.60 -7 -0.95 -0.70 -2 -1.30 -2.30 -1.30 -0.35 0 -2.15 -1.55 -4.05 -3.50 -1.90 -1.90 -3.75 -3.50 -4.10 -3.50 -0.95 0 -4.15 2.20 -6.35 4.25 -0.95 0.95 -2.55 2.05 -3.60 2.45 -2 0.85 -3.90 2.95 -3.90 4.30 0 1.05 1.05 2 4.25 3.70 1.40 0.75 3.05 2.15 3.75 3.20 0.70 1 1.35 1.95 1.50 2.10 0.15 0.15 0.65 0.85 1.15 1.65 1 1.55 2.60 1.75 4.15 0.45z m-423.95 -53.40 c1.15 -1.40 2.90 -2.75 4.50 -3.45 4.20 -1.90 4.85 -5.05 1.35 -6.50 -0.95 -0.40 -3.05 -1.95 -4.60 -3.45 -3.20 -3.05 -5.20 -4.05 -6.50 -3.35 -0.45 0.30 -1.70 1.35 -2.70 2.45 -1.05 1.05 -2.90 2.60 -4.15 3.40 -3.75 2.35 -3.70 4.45 0.10 6.40 2.15 1.10 5.15 3.75 5.15 4.65 0 0.95 1.85 2.15 3.30 2.15 1.30 0 1.95 -0.45 3.55 -2.30z m404.65 -1.35 c1.50 -0.30 3.20 -0.55 3.75 -0.60 1.45 -0.05 7.25 -2.85 9.05 -4.40 0.85 -0.75 1.70 -1.20 1.90 -1 0.15 0.15 0.30 0.05 0.30 -0.25 0 -0.35 0.15 -0.55 0.40 -0.50 0.50 0.15 6.15 -5.95 7.95 -8.60 1.90 -2.85 4.15 -7.45 4.15 -8.45 0 -0.45 0.45 -2.15 0.95 -3.85 0.80 -2.50 0.95 -4.20 0.80 -9.60 -0.10 -3.60 -0.40 -7 -0.70 -7.55 -0.30 -0.55 -0.55 -1.50 -0.55 -2.15 0 -2.10 -4.35 -10.25 -7.55 -14.15 -2.25 -2.75 -4.35 -4.60 -7.65 -6.75 -2.50 -1.65 -4.90 -3 -5.35 -3 -0.45 0 -0.95 -0.35 -1.15 -0.75 -0.15 -0.40 -0.75 -0.75 -1.30 -0.75 -0.55 0 -2.45 -0.45 -4.15 -0.95 -2.95 -0.90 -10.35 -1.80 -10.35 -1.20 0 0.10 1.25 1.65 2.80 3.30 2.85 3.15 6.20 8.35 6.20 9.60 0 0.40 0.25 0.85 0.50 1 0.30 0.15 0.50 0.85 0.50 1.50 0 0.65 0.20 1.30 0.45 1.45 1.20 0.75 1.80 12.30 0.80 16.40 -0.35 1.60 -0.50 2.90 -0.35 2.90 0.15 0 0.05 0.25 -0.30 0.60 -0.35 0.35 -0.60 1 -0.60 1.45 0 1.20 -3 6.20 -5.30 8.85 -2.30 2.70 -7.95 7 -9.65 7.45 -0.70 0.15 -1.75 0.55 -2.30 0.85 -3.35 1.80 -16.65 2.20 -20.45 0.60 -1.10 -0.45 -2.05 -0.75 -2.15 -0.65 -0.10 0.10 0.95 1.75 2.30 3.65 3.75 5.40 10.25 11 15.20 13.20 3.70 1.65 9.65 3 11.75 2.70 1.25 -0.15 2.15 -0.05 2.35 0.30 0.35 0.60 2.80 0.40 7.75 -0.65z m-323.80 -27.65 c0.45 -0.15 1.60 -1.40 2.55 -2.75 1.20 -1.70 2.50 -2.80 4 -3.45 4.30 -1.85 4.30 -4.95 0.05 -7.15 -1.60 -0.85 -3.25 -2.20 -4.05 -3.30 -1.30 -1.90 -3.05 -3.05 -4.60 -3.05 -0.50 0 -1.90 1.10 -3.15 2.45 -1.25 1.30 -3.40 3 -4.80 3.70 -4.10 2.05 -4.20 4.95 -0.30 6.80 1.45 0.70 3 2 4.10 3.45 0.95 1.30 2 2.60 2.25 2.95 0.55 0.65 2.65 0.85 3.95 0.35z m-47.80 -22.45 c1.40 -1.50 1.60 -2.10 1.60 -4.35 -0.05 -4 -2.45 -6.40 -6.50 -6.40 -5.60 0 -8.40 6.50 -4.50 10.55 2.85 3 6.75 3.10 9.40 0.20z" transform="matrix(1, 0, 0, 1, 0, 3.552713678800501e-15)"/>
  <path d="M613.25 625.75 c-5.65 -1.50 -8.65 -3.55 -12.35 -8.25 -4 -5.10 -5.10 -8.90 -5.10 -17.25 0 -5.80 0.15 -6.90 1.35 -10.25 1.60 -4.30 3.10 -6.80 5.80 -9.40 4.35 -4.20 11.20 -6 16.55 -4.35 3.55 1.10 7.05 2.80 7.35 3.60 0.15 0.35 1 1.10 1.95 1.70 2.40 1.45 6.35 9.75 7.20 15.10 0.75 4.55 0.40 11.40 -0.75 15.20 -1.10 3.60 -4.35 8.35 -7.10 10.35 -2.45 1.80 -7.10 3.55 -10.40 3.95 -1.10 0.15 -3.10 -0.05 -4.50 -0.40z" transform="matrix(1, 0, 0, 1, 0, 3.552713678800501e-15)"/>
  <path d="M523.25 570 c-1.20 -1.25 -1.45 -1.95 -1.45 -3.60 0.05 -1.75 0.40 -2.40 1.90 -3.75 1.90 -1.75 3.15 -2 4.95 -1.10 5.25 2.70 3.95 9.95 -1.75 9.95 -1.80 0 -2.50 -0.30 -3.65 -1.50z" transform="matrix(1, 0, 0, 1, 0, 3.552713678800501e-15)"/>
  <path d="M509.25 564.35 c-3.50 -1.90 -4.20 -5.25 -1.70 -8.10 1.30 -1.50 1.85 -1.75 3.65 -1.75 1.10 0.05 2.55 0.30 3.20 0.65 1.30 0.75 2.60 3 2.60 4.55 0 1.45 -2.35 4.80 -3.40 4.85 -0.45 0 -1.40 0.10 -2.10 0.20 -0.70 0.10 -1.75 -0.10 -2.25 -0.40z" transform="matrix(1, 0, 0, 1, 0, 3.552713678800501e-15)"/>
  <path d="M540 564.15 c-2.80 -1.05 -4.05 -4.30 -2.80 -7.30 1.80 -4.35 8.50 -3.65 9.75 0.95 1.15 4.15 -2.90 7.85 -6.95 6.35z" transform="matrix(1, 0, 0, 1, 0, 3.552713678800501e-15)"/>
  <path d="M522.15 554.15 c-1.55 -1.60 -1.75 -2.05 -1.50 -3.80 0.35 -2.45 1.60 -3.80 4.10 -4.35 5.55 -1.25 8.90 4.15 5.05 8.20 -1.40 1.50 -2 1.80 -3.80 1.80 -1.80 0 -2.40 -0.30 -3.85 -1.85z" transform="matrix(1, 0, 0, 1, 0, 3.552713678800501e-15)"/>
  <path d="M485.50 551.50 c-0.40 -0.20 -1.25 -0.60 -1.85 -0.90 -0.65 -0.35 -1.35 -0.60 -1.65 -0.60 -0.65 0 -0.95 -0.25 -4.10 -3 -2.15 -1.90 -4.25 -5.35 -5.90 -9.80 -0.75 -2.05 -1 -10.25 -0.40 -13.95 0.25 -1.65 0.55 -3.45 0.60 -4 0.25 -2 0.95 -4.05 2.45 -7 4.75 -9.30 11 -13.50 19.45 -13.05 3.05 0.15 4.20 0.45 7 2 5.40 3 8.25 6.95 10.25 14.15 0.95 3.55 1.20 14.40 0.35 16.20 -0.35 0.65 -0.85 2.45 -1.15 3.95 -0.65 3.05 -2.40 6.35 -4.95 9.25 -2.25 2.50 -8.05 6.25 -9.70 6.25 -0.75 0 -1.50 0.25 -1.65 0.50 -0.35 0.60 -7.55 0.60 -8.75 0z" transform="matrix(1, 0, 0, 1, 0, 3.552713678800501e-15)"/>
  <path d="M355.70 550.70 c-3.80 -1.85 -3.55 -7.25 0.45 -9.30 1.70 -0.85 2.15 -0.90 3.55 -0.35 2.80 1.10 3.80 2.40 3.80 4.85 0 1.85 -0.30 2.50 -1.70 3.90 -1.90 1.90 -3.60 2.15 -6.10 0.90z" transform="matrix(1, 0, 0, 1, 0, 3.552713678800501e-15)"/>
  <path d="M426.75 549.30 c-3.25 -1.10 -8.10 -4 -10.05 -6.05 -3.10 -3.20 -4.90 -8.55 -4.95 -14.55 0 -5.75 1.40 -9.15 4.30 -10.50 3.15 -1.40 7.45 0 9 2.90 0.30 0.55 0.60 2.80 0.65 4.95 0.10 3.55 0.25 4.15 1.60 5.80 0.85 1 2.35 2.25 3.35 2.80 1.75 0.90 1.95 0.90 4.50 0.10 5.05 -1.60 6.30 -2.60 8.70 -7.25 1.25 -2.35 2.70 -4.75 3.25 -5.35 2.50 -2.65 7.85 -1.70 9.80 1.80 1.55 2.75 1.40 5.50 -0.55 10.45 -4 9.90 -13.05 15.80 -23.85 15.50 -2.35 -0.05 -4.90 -0.35 -5.75 -0.60z" transform="matrix(1, 0, 0, 1, 0, 3.552713678800501e-15)"/>
  <path d="M666.65 545 c-3.10 -1.45 -5.60 -4.45 -5.70 -7 -0.30 -5.45 0.85 -9.15 3.40 -10.85 5 -3.35 10.10 -3.15 14.50 0.55 3.65 3.05 4.60 9.35 2 13.25 -1.85 2.75 -4.70 4.50 -8.30 4.95 -2.65 0.40 -3.30 0.30 -5.90 -0.90z" transform="matrix(1, 0, 0, 1, 0, 3.552713678800501e-15)"/>
  <path d="M339.50 544.65 c-1.85 -0.70 -3.50 -2.85 -3.50 -4.60 0 -3.40 2.45 -6 5.50 -5.85 1.65 0.10 4.35 1.55 4.95 2.70 0.50 1 0.10 3.65 -0.90 5.50 -1 1.90 -3.95 3 -6.05 2.25z" transform="matrix(1, 0, 0, 1, 0, 3.552713678800501e-15)"/>
  <path d="M385.75 539.55 c-6.10 -0.55 -11.65 -4.35 -14.70 -10.05 -1.35 -2.50 -1.70 -3.90 -2.15 -8.70 -0.50 -5 -0.50 -6 0.25 -8.30 0.45 -1.45 0.85 -3.30 0.85 -4.15 0 -2.15 4 -10.15 6.50 -12.95 1.15 -1.30 3.55 -3.40 5.40 -4.60 2.75 -1.85 4.05 -2.35 7 -2.80 2 -0.35 4.05 -0.40 4.50 -0.20 0.45 0.20 1.05 0.30 1.30 0.25 1.55 -0.35 7.65 2.90 9.15 4.90 0.75 1 1.45 1.90 1.65 2.05 0.40 0.40 2.30 4.55 2.95 6.55 0.75 2.45 1.55 10.60 1.05 11.20 -0.20 0.30 -0.40 1.45 -0.40 2.65 -0.05 1.20 -0.70 4.35 -1.55 7 -2.80 8.90 -7.80 14.40 -15.05 16.50 -0.95 0.25 -2.10 0.60 -2.50 0.70 -0.40 0.15 -2.30 0.10 -4.25 -0.05z" transform="matrix(1, 0, 0, 1, 0, 3.552713678800501e-15)"/>
  <path d="M354 535.65 c-3.45 -1.40 -4.45 -3.70 -3 -7.05 1.10 -2.45 2.75 -3.30 5.65 -2.95 4.90 0.65 6.20 5.75 2.35 9 -1.20 1 -3.75 1.50 -5 1z" transform="matrix(1, 0, 0, 1, 0, 3.552713678800501e-15)"/>
  <path d="M330.50 531.35 c-4.30 -2.20 -2.65 -9.30 2.25 -9.55 3.05 -0.20 4.75 0.60 5.55 2.50 1.10 2.65 0.90 4.10 -1 6 -1.35 1.35 -2.10 1.70 -3.60 1.70 -1.10 0 -2.50 -0.30 -3.20 -0.65z" transform="matrix(1, 0, 0, 1, 0, 3.552713678800501e-15)"/>
  <path d="M620.50 525 c-5.70 -1 -11.85 -4.50 -17.25 -9.80 -5.90 -5.80 -7.80 -8.40 -11.85 -16.10 -5.70 -10.70 -7.75 -18.95 -7.55 -30.20 0.10 -5.35 0.30 -7 1.40 -10.25 1.60 -4.80 3 -7.20 5.85 -10.25 2.30 -2.40 6.70 -5.05 8.90 -5.30 0.70 -0.10 1.45 -0.35 1.65 -0.60 0.55 -0.50 8.05 -0.05 8.25 0.50 0.10 0.25 0.50 0.30 0.85 0.15 0.95 -0.35 4.75 1.15 9 3.55 4.70 2.65 12.30 10.30 16.05 16.10 3.20 5 7.20 13.10 7.20 14.70 0 0.55 0.25 1 0.50 1 0.30 0 0.50 0.70 0.50 1.50 0 0.85 0.20 1.50 0.45 1.50 0.25 0 0.55 0.75 0.70 1.65 0.15 0.85 0.65 3.40 1.10 5.60 0.45 2.20 0.80 6.25 0.80 9 0.05 15.20 -6.45 24.75 -18.40 27.05 -4.05 0.75 -4.75 0.80 -8.15 0.20z" transform="matrix(1, 0, 0, 1, 0, 3.552713678800501e-15)"/>
  <path d="M469.25 474.20 c-10.25 -2.85 -15.25 -7.65 -15.55 -15.05 -0.20 -5.40 3.10 -10.80 8.65 -13.90 5 -2.75 14.95 -4.15 20.20 -2.75 6 1.60 9.20 3.25 11.75 6.15 3.95 4.50 4.75 10.90 1.90 15.70 -2.45 4.25 -5.05 6.30 -10.50 8.35 -2.95 1.10 -4.60 1.40 -9.50 1.55 -3.30 0.10 -6.40 0.10 -6.95 -0.05z" transform="matrix(1, 0, 0, 1, 0, 3.552713678800501e-15)"/>
  <path d="M545.45 459.35 c-3.05 -0.80 -6.40 -2.95 -8.05 -5.25 -2.55 -3.65 -3.50 -9.45 -1.95 -12.50 0.25 -0.45 0.85 -1.70 1.35 -2.75 2 -4.15 7.20 -6.95 12.75 -6.90 6.65 0.05 11.85 3.80 13.70 9.90 1 3.30 0.95 5.60 -0.30 8.45 -1.55 3.50 -3.05 5.35 -6.05 7.30 -2.15 1.40 -3.30 1.80 -5.90 2.05 -1.80 0.15 -4.30 0 -5.55 -0.30z" transform="matrix(1, 0, 0, 1, 0, 3.552713678800501e-15)"/>
  <path d="M 337.802 353.303 C 335.052 352.103 331.302 348.153 329.752 344.853 C 327.552 340.153 327.052 337.253 326.852 327.603 C 326.652 319.403 326.752 317.903 327.652 314.503 C 328.252 312.353 328.702 310.253 328.702 309.803 C 328.702 306.703 335.052 297.653 338.202 296.253 C 343.302 293.953 344.102 293.903 349.452 295.453 C 351.902 296.153 353.002 296.853 355.352 299.203 C 360.652 304.453 362.852 311.603 362.902 323.603 C 362.952 336.103 360.652 343.453 354.802 349.553 C 352.402 352.003 351.402 352.653 348.652 353.503 C 344.602 354.803 341.002 354.703 337.802 353.303 L 337.802 353.303 Z M 344.952 339.503 C 346.352 338.903 348.102 336.353 349.052 333.603 C 349.952 331.153 349.902 320.053 349.002 316.703 C 348.152 313.653 346.802 311.203 345.552 310.403 C 344.802 309.953 344.502 310.103 343.702 311.103 C 340.702 314.953 339.602 319.703 339.852 327.853 C 340.002 333.903 340.502 335.853 342.652 338.953 C 343.602 340.303 343.352 340.253 344.952 339.503 L 344.952 339.503 Z" transform="matrix(1, 0, 0, 1, 0, 3.552713678800501e-15)"/>
  <path d="M 379.902 353.853 C 375.602 352.503 373.452 350.753 370.252 346.003 C 364.252 337.053 364.202 319.053 370.152 305.903 C 371.452 303.153 376.502 297.603 378.802 296.503 C 382.552 294.703 383.102 294.503 384.502 294.653 C 385.302 294.753 386.252 294.603 386.652 294.403 C 387.052 294.153 387.452 294.203 387.652 294.553 C 387.852 294.853 388.352 295.003 388.802 294.853 C 390.102 294.353 394.852 296.853 397.502 299.403 C 399.502 301.353 400.152 302.453 400.852 304.903 C 402.302 310.003 402.052 311.453 399.452 313.853 C 397.602 315.603 396.952 315.903 395.602 315.753 C 392.152 315.353 391.702 315.053 389.702 312.053 C 387.802 309.303 387.502 309.053 386.052 309.203 C 383.602 309.453 381.002 313.603 379.902 319.103 C 378.752 324.803 379.152 333.503 380.702 336.753 C 382.852 341.353 384.002 341.503 390.052 337.803 C 395.402 334.553 398.852 334.903 400.502 338.903 C 401.452 341.153 401.402 342.253 400.202 344.903 C 398.252 349.153 395.252 351.653 389.452 353.903 C 387.702 354.553 382.052 354.553 379.902 353.853 L 379.902 353.853 Z" transform="matrix(1, 0, 0, 1, 0, 3.552713678800501e-15)"/>
  <path d="M 707.644 353.632 C 704.444 352.832 702.494 351.782 700.794 349.982 C 698.694 347.732 696.394 343.382 694.944 339.082 C 693.744 335.332 693.644 334.432 693.644 325.832 C 693.644 317.082 693.744 316.332 695.094 311.832 C 696.994 305.532 698.444 302.582 701.144 299.482 C 703.044 297.332 706.744 294.932 708.644 294.632 C 708.944 294.582 709.394 294.382 709.694 294.232 C 709.994 294.032 710.994 294.082 711.844 294.332 C 712.744 294.582 713.794 294.632 714.194 294.482 C 715.444 294.032 720.194 296.782 722.544 299.332 C 730.144 307.682 732.594 325.982 727.944 338.832 C 723.844 350.032 715.994 355.782 707.644 353.632 Z M 714.594 336.732 C 715.294 335.282 716.094 332.882 716.394 331.482 C 716.944 328.482 716.644 320.432 715.844 316.982 C 715.144 313.782 712.894 309.732 711.944 309.932 C 710.794 310.182 708.594 313.732 707.544 317.082 C 706.444 320.782 706.344 331.682 707.394 334.382 C 708.594 337.432 710.294 339.332 711.844 339.332 C 713.044 339.332 713.444 338.932 714.594 336.732 Z" transform="matrix(1, 0, 0, 1, 0, 3.552713678800501e-15)"/>
  <path d="M 261.702 353.003 C 260.102 352.203 259.152 351.253 258.452 349.853 C 257.502 347.953 257.452 346.903 257.502 327.053 C 257.552 303.903 257.802 301.353 260.302 298.703 C 262.152 296.653 263.752 295.853 267.452 295.053 C 272.952 293.903 276.852 294.503 281.502 297.403 C 285.002 299.553 287.052 301.853 288.552 305.103 C 289.602 307.403 289.802 308.553 289.802 312.253 C 289.752 314.703 289.402 317.853 289.002 319.353 C 288.002 322.753 284.352 327.603 281.302 329.503 C 278.652 331.203 274.152 333.103 272.752 333.103 C 271.102 333.103 270.802 334.203 270.552 341.253 C 270.252 348.703 269.602 350.953 267.152 352.653 C 265.152 354.103 264.052 354.153 261.702 353.003 L 261.702 353.003 Z M 274.202 317.753 C 277.202 315.703 277.602 312.803 275.252 310.203 C 273.952 308.803 273.352 308.553 271.352 308.603 C 270.552 308.653 270.202 311.453 270.502 315.003 C 270.802 318.253 270.902 318.603 271.902 318.603 C 272.502 318.603 273.552 318.203 274.202 317.753 L 274.202 317.753 Z" transform="matrix(1, 0, 0, 1, 0, 3.552713678800501e-15)"/>
  <path d="M 295.202 353.203 C 294.052 352.653 293.052 351.603 292.352 350.103 C 291.302 348.003 291.202 347.153 291.152 337.853 C 291.152 332.353 291.202 325.603 291.302 322.853 C 291.402 320.103 291.352 317.453 291.102 317.003 C 290.902 316.553 290.902 316.053 291.152 315.903 C 291.402 315.753 291.602 312.453 291.652 308.553 C 291.702 300.703 292.002 299.653 295.052 297.153 C 297.152 295.403 301.752 294.153 305.202 294.453 C 310.902 294.853 311.902 295.103 314.352 296.303 C 317.102 297.653 320.402 300.453 321.802 302.653 C 323.052 304.603 324.202 309.003 324.202 311.803 C 324.152 316.853 320.852 323.903 317.702 325.753 C 315.902 326.853 315.852 327.453 317.352 330.503 C 318.002 331.803 319.102 334.453 319.752 336.353 C 320.402 338.303 321.102 339.953 321.302 340.003 C 321.552 340.103 321.702 340.553 321.702 341.003 C 321.702 341.503 322.052 342.753 322.452 343.853 C 323.652 347.203 323.402 349.753 321.752 351.403 C 318.652 354.553 317.652 354.753 314.902 353.053 C 312.102 351.353 309.352 346.653 306.702 339.103 C 306.102 337.303 305.352 335.453 305.102 334.903 C 304.152 333.153 303.702 335.153 303.702 341.153 C 303.702 348.353 302.902 351.103 300.302 352.853 C 298.152 354.353 297.502 354.403 295.202 353.203 L 295.202 353.203 Z M 307.202 316.853 C 309.002 315.953 310.702 313.553 310.702 312.003 C 310.702 309.953 305.152 307.103 304.152 308.653 C 303.902 309.053 303.702 311.203 303.702 313.503 C 303.702 317.303 303.752 317.603 304.702 317.603 C 305.302 317.603 306.402 317.253 307.202 316.853 Z" transform="matrix(1, 0, 0, 1, 0, 3.552713678800501e-15)"/>
  <path d="M 409.152 352.953 C 407.952 352.153 407.202 351.103 406.602 349.353 C 405.802 347.103 405.752 344.803 406.002 325.853 C 406.152 314.303 406.352 303.903 406.502 302.803 C 406.752 300.453 409.452 296.603 410.752 296.603 C 411.202 296.603 411.852 296.303 412.152 295.903 C 413.552 294.253 423.952 294.053 428.452 295.603 C 432.502 297.003 434.802 298.703 436.852 301.803 C 439.252 305.403 439.852 307.703 439.602 312.403 C 439.352 317.403 437.652 321.103 433.902 324.803 C 431.702 327.003 431.352 327.603 431.902 328.053 C 432.302 328.403 432.902 329.653 433.252 330.853 C 433.602 332.103 434.102 333.103 434.302 333.103 C 434.502 333.103 434.702 333.553 434.702 334.103 C 434.702 334.653 434.902 335.503 435.202 336.003 C 435.952 337.303 438.702 347.353 438.702 348.753 C 438.702 351.253 434.552 354.103 431.802 353.553 C 428.202 352.803 425.652 349.003 422.752 340.053 C 421.102 334.853 420.202 332.903 419.652 333.453 C 419.402 333.703 419.102 336.903 419.002 340.503 C 418.802 346.403 418.652 347.453 417.502 349.803 C 415.502 353.903 412.352 355.103 409.152 352.953 L 409.152 352.953 Z M 422.702 316.303 C 424.902 315.403 425.702 314.353 425.702 312.453 C 425.702 310.703 423.102 308.603 420.952 308.603 C 419.552 308.603 419.302 308.803 419.002 310.153 C 418.602 312.153 418.602 315.303 419.002 316.303 C 419.402 317.303 420.152 317.303 422.702 316.303 L 422.702 316.303 Z" transform="matrix(1, 0, 0, 1, 0, 3.552713678800501e-15)"/>
  <path d="M 483.452 352.903 C 479.202 350.903 478.152 348.953 479.452 345.203 C 480.802 341.203 482.902 339.603 486.752 339.603 C 489.352 339.603 490.652 338.903 491.452 336.953 C 492.402 334.703 491.852 332.803 489.802 330.953 C 483.652 325.403 481.652 323.253 480.152 320.453 C 478.552 317.553 478.452 317.053 478.452 312.603 C 478.452 308.253 478.602 307.553 480.152 304.453 C 483.052 298.403 488.552 295.153 495.552 295.303 C 500.202 295.403 503.502 296.903 504.702 299.503 C 505.602 301.403 506.002 301.503 506.402 299.903 C 507.052 297.353 510.452 295.303 513.702 295.503 C 514.102 295.503 514.602 295.253 514.852 294.953 C 515.152 294.503 515.352 294.503 515.552 295.003 C 515.652 295.303 516.002 295.453 516.302 295.303 C 517.102 294.803 530.252 294.653 533.652 295.103 C 535.452 295.353 537.252 295.903 537.802 296.453 C 539.402 297.853 540.852 301.453 540.452 303.003 C 539.652 306.203 536.352 308.853 531.802 309.953 L 530.152 310.353 L 529.902 325.853 C 529.752 334.403 529.602 342.253 529.652 343.353 C 529.702 346.453 528.402 350.203 526.702 351.853 C 525.402 353.103 524.702 353.353 522.702 353.353 C 519.952 353.353 518.502 352.353 517.302 349.603 C 516.602 348.103 516.502 344.903 516.402 329.103 C 516.352 318.803 516.252 310.203 516.252 310.003 C 516.202 309.803 515.552 309.753 514.802 309.903 C 512.652 310.353 509.052 308.503 507.352 306.103 C 505.702 303.803 505.202 303.603 505.202 305.403 C 505.202 306.303 504.602 307.303 503.402 308.453 C 501.602 310.153 501.502 310.153 498.452 309.853 C 493.852 309.353 492.752 309.953 492.452 313.253 C 492.352 314.053 495.052 316.903 498.202 319.353 C 498.902 319.903 500.402 321.553 501.552 322.953 C 507.852 330.953 507.302 341.853 500.152 349.153 C 495.452 353.953 488.852 355.453 483.452 352.903 L 483.452 352.903 Z" transform="matrix(1, 0, 0, 1, 0, 3.552713678800501e-15)"/>
  <path d="M 569.809 353.426 C 569.659 353.176 569.109 353.076 568.609 353.176 C 568.159 353.276 567.009 352.726 566.059 351.876 C 564.409 350.376 564.409 350.376 563.909 344.026 C 563.659 340.476 563.509 329.276 563.609 319.126 L 563.759 300.626 L 565.159 298.226 C 566.059 296.726 567.159 295.626 568.209 295.176 C 570.109 294.376 574.659 294.576 575.859 295.526 C 577.659 296.976 580.509 300.076 580.509 300.626 C 580.509 300.776 581.009 301.726 581.659 302.776 C 582.309 303.776 583.909 307.126 585.259 310.126 C 586.609 313.176 588.159 316.526 588.709 317.626 L 589.759 319.626 L 590.109 310.976 C 590.309 306.226 590.709 301.426 591.009 300.276 C 591.659 298.026 593.459 296.076 595.909 295.026 C 598.709 293.876 601.709 295.376 603.509 298.826 C 604.009 299.776 604.109 304.376 604.059 317.826 C 603.959 339.676 603.659 347.676 602.709 349.426 C 601.659 351.526 599.309 353.226 596.959 353.576 C 595.259 353.826 594.359 353.676 592.559 352.726 C 589.609 351.276 587.809 348.576 582.209 337.526 C 579.809 332.776 577.709 329.026 577.559 329.176 C 577.409 329.326 577.109 333.426 576.959 338.276 C 576.559 349.226 576.109 350.576 572.609 352.526 C 571.209 353.276 569.959 353.676 569.809 353.426 Z" transform="matrix(1, 0, 0, 1, 0, 3.552713678800501e-15)"/>
  <path d="M 653.988 353.471 C 650.038 351.771 649.738 349.971 649.738 328.371 L 649.738 310.321 L 647.388 309.971 C 644.588 309.621 641.988 307.971 641.088 306.071 C 640.788 305.271 640.338 304.671 640.138 304.671 C 639.888 304.671 639.738 303.721 639.738 302.571 C 639.738 298.721 642.638 295.521 646.188 295.371 C 647.188 295.371 648.338 295.171 648.738 294.971 C 649.188 294.821 653.688 294.721 658.738 294.821 C 669.038 294.971 670.188 295.271 672.088 298.121 C 673.588 300.371 673.538 302.721 671.938 305.721 C 670.788 307.771 670.238 308.271 668.288 308.871 C 667.038 309.271 665.438 309.671 664.738 309.771 L 663.488 309.921 L 663.388 322.671 C 663.288 343.371 663.038 347.621 661.838 350.321 C 660.338 353.721 657.338 354.921 653.988 353.471 Z" transform="matrix(1, 0, 0, 1, 0, 3.552713678800501e-15)"/>
  <path d="M 740.524 353.225 C 739.674 352.975 738.274 352.125 737.524 351.325 C 736.174 349.975 736.074 349.525 735.574 343.725 C 735.074 337.725 735.024 320.325 735.474 307.025 C 735.674 301.575 735.874 300.175 736.774 298.425 C 738.424 295.225 742.474 293.525 744.824 294.975 C 745.174 295.175 745.574 295.225 745.724 295.075 C 746.624 294.175 750.374 297.625 751.874 300.775 C 752.574 302.125 753.274 303.275 753.524 303.275 C 753.724 303.275 753.874 303.475 753.874 303.725 C 753.874 303.975 755.224 307.075 756.924 310.625 C 761.024 319.325 760.974 319.275 761.424 319.275 C 761.624 319.275 761.824 316.275 761.824 312.675 C 761.924 301.875 762.874 297.775 765.724 295.925 C 768.874 293.825 774.074 295.725 775.174 299.375 C 775.874 301.575 775.574 339.775 774.874 344.525 C 774.124 349.275 773.574 350.525 771.524 352.075 C 769.074 353.925 765.774 354.025 763.174 352.275 C 760.774 350.625 759.224 348.175 754.124 337.825 C 751.774 333.125 749.674 329.275 749.424 329.275 C 749.174 329.275 748.874 333.375 748.774 338.675 C 748.624 347.475 748.524 348.125 747.424 349.925 C 746.524 351.425 743.024 353.975 742.274 353.725 C 742.174 353.725 741.424 353.475 740.524 353.225 Z" transform="matrix(1, 0, 0, 1, 0, 3.552713678800501e-15)"/>
  <path d="M 444.152 352.453 C 442.152 351.153 441.252 349.503 441.152 347.103 C 441.052 344.703 442.652 334.953 443.252 334.353 C 443.502 334.103 443.702 333.353 443.702 332.603 C 443.702 331.603 445.002 326.203 448.502 312.603 C 450.602 304.453 453.002 298.903 455.402 296.603 C 457.202 294.903 457.402 294.853 460.852 294.903 C 464.202 294.903 464.552 295.053 466.102 296.553 C 466.952 297.453 467.702 298.503 467.702 298.903 C 467.702 299.303 467.952 299.603 468.202 299.603 C 468.502 299.603 468.702 300.003 468.702 300.503 C 468.702 301.003 468.902 301.603 469.102 301.853 C 469.652 302.503 470.502 305.603 471.252 309.603 C 471.552 311.403 472.002 313.553 472.252 314.353 C 472.752 316.103 474.402 323.203 475.152 326.853 C 475.452 328.253 476.052 330.853 476.452 332.753 C 478.152 340.053 478.702 344.953 478.152 347.503 C 477.752 349.553 477.302 350.203 475.452 351.553 C 470.202 355.303 466.352 352.253 464.452 342.753 C 464.052 340.853 462.802 340.453 458.752 340.903 L 455.902 341.203 L 454.802 345.053 C 453.352 349.853 452.802 350.903 451.052 352.403 C 449.202 353.953 446.452 354.003 444.152 352.453 L 444.152 352.453 Z M 461.702 325.803 C 461.702 324.503 460.052 318.103 459.802 318.353 C 459.202 318.903 457.702 323.903 457.702 325.203 C 457.702 326.503 457.852 326.603 459.702 326.603 C 461.202 326.603 461.702 326.403 461.702 325.803 Z" transform="matrix(1, 0, 0, 1, 0, 3.552713678800501e-15)"/>
  <path d="M 609.659 352.626 C 608.809 352.276 607.759 351.326 607.359 350.526 C 606.209 348.326 605.809 344.726 606.509 342.626 C 606.859 341.626 607.109 339.476 607.109 337.826 C 607.109 336.226 607.259 334.876 607.459 334.876 C 607.659 334.876 608.109 333.476 608.459 331.776 C 608.809 330.026 609.309 327.826 609.559 326.876 C 609.759 325.926 610.409 323.126 611.009 320.626 C 613.359 310.526 616.259 301.226 617.809 298.776 C 618.459 297.726 619.959 296.276 621.109 295.576 C 623.909 293.776 627.609 294.026 630.109 296.176 C 632.559 298.276 633.659 301.026 636.809 313.526 C 641.109 330.576 643.359 343.226 642.809 346.826 C 642.109 351.376 637.859 354.326 634.509 352.626 C 632.509 351.576 631.509 349.926 629.959 345.126 L 628.659 341.126 L 624.759 341.126 L 620.809 341.126 L 619.159 345.876 C 616.759 352.876 614.259 354.626 609.659 352.626 Z M 626.159 324.876 C 626.059 322.126 624.859 317.726 624.459 318.476 C 624.309 318.826 623.759 320.676 623.259 322.576 C 622.359 326.376 622.609 327.026 625.009 326.776 C 626.109 326.626 626.259 326.376 626.159 324.876 Z" transform="matrix(1, 0, 0, 1, 0, 3.552713678800501e-15)"/>
  <path d="M 679.888 352.971 C 679.038 352.571 677.988 351.621 677.588 350.821 C 676.588 348.871 675.688 344.221 675.738 341.321 C 675.788 340.021 675.788 330.721 675.738 320.721 C 675.688 300.471 675.938 298.871 678.788 296.421 C 681.188 294.471 685.138 294.521 687.188 296.621 C 689.688 299.171 689.838 300.421 689.938 318.821 C 690.138 341.621 689.388 348.771 686.588 351.871 C 685.188 353.471 682.138 353.971 679.888 352.971 Z" transform="matrix(1, 0, 0, 1, 0, 3.552713678800501e-15)"/>
  <path d="M851.30 682.65 c-0.65 -0.65 -1 -0.70 -1.15 -0.30 -0.15 0.50 -0.45 0.50 -1.20 0 -0.50 -0.30 -0.95 -0.80 -0.95 -1.05 0 -0.25 -0.30 -0.85 -0.70 -1.25 -0.35 -0.45 -1.30 -2.75 -2.05 -5.15 -0.95 -2.90 -1.65 -4.40 -2.15 -4.40 -1.60 0 -7.70 -2.75 -9.10 -4.15 -1.70 -1.65 -1.90 -3.15 -0.70 -5.60 0.50 -1.15 1.20 -1.75 2.20 -1.95 0.80 -0.15 2.35 -0.85 3.50 -1.55 1.10 -0.70 2.40 -1.25 2.95 -1.25 1.25 0 2.75 -2.40 4.25 -6.85 1.75 -5.05 1.80 -5.15 3.30 -5.90 1.10 -0.55 1.50 -0.60 1.65 -0.10 0.20 0.45 0.35 0.45 0.75 -0.05 1 -1.40 4.40 1.20 4.90 3.80 0.15 0.85 0.50 1.60 0.70 1.60 0.20 0 0.55 1.05 0.75 2.40 0.40 3 2.45 6.10 4.05 6.10 0.60 0 1.30 0.25 1.45 0.50 0.15 0.30 0.70 0.50 1.20 0.50 1.30 0 4.05 1.50 4.05 2.20 0 0.30 0.30 0.90 0.65 1.20 0.80 0.85 0.80 3 0 3.30 -0.35 0.15 -0.65 0.70 -0.65 1.20 0 0.65 -0.55 1.20 -1.60 1.55 -0.90 0.35 -2.30 0.95 -3.05 1.35 -0.80 0.40 -1.70 0.70 -2.05 0.70 -0.70 0 -2.95 2.25 -3.70 3.75 -0.25 0.55 -0.75 2.35 -1.05 3.95 -0.55 2.90 -2.50 5.70 -3.60 5.05 -0.25 -0.20 -0.60 0.05 -0.75 0.45 -0.40 1 -0.75 1 -1.90 -0.05z" transform="matrix(1, 0, 0, 1, 0, 3.552713678800501e-15)"/>
  <path d="M171.05 629.05 c-1.30 -1.30 -2.45 -3.25 -3.50 -5.95 -0.85 -2.25 -1.55 -4.30 -1.55 -4.65 0 -0.30 -1.20 -2.60 -2.70 -5.15 -2.55 -4.35 -6.20 -8.30 -7.65 -8.30 -0.35 0 -0.65 -0.20 -0.65 -0.40 0 -0.20 -1.05 -0.65 -2.35 -1.05 -2.60 -0.70 -3.15 -0.90 -6.75 -2.50 -1.30 -0.60 -2.65 -1.05 -2.90 -1.05 -1.05 0 -4.10 -2.45 -5.05 -3.95 -1.40 -2.35 -1.20 -4.30 0.65 -6.30 0.85 -0.95 1.75 -1.75 1.95 -1.75 0.25 0 1.65 -0.55 3.15 -1.25 1.50 -0.70 3.05 -1.25 3.45 -1.25 0.35 0 0.85 -0.15 1.05 -0.35 0.20 -0.25 0.55 -0.40 0.70 -0.40 0.55 0 7.25 -2.90 8.60 -3.70 2.25 -1.35 4.45 -4.25 6.50 -8.40 1.10 -2.20 2 -4.40 2 -4.85 0 -0.45 0.20 -1.20 0.45 -1.70 0.30 -0.45 0.85 -1.95 1.25 -3.35 1.15 -3.65 2.40 -5.35 4.70 -6.60 1.55 -0.80 2.40 -1 3.45 -0.70 4.20 1.25 5.15 2.55 8.20 11.20 2.40 6.70 3.75 9.15 6.80 12.10 2.30 2.20 3.35 2.70 13.40 6.45 4.55 1.70 6.95 3.65 7.65 6.25 0.95 3.80 -1.70 6.70 -8.65 9.40 -1.90 0.70 -3.70 1.50 -3.95 1.75 -0.30 0.20 -0.90 0.40 -1.40 0.40 -0.50 0 -0.90 0.25 -0.90 0.50 0 0.30 -0.35 0.50 -0.75 0.50 -1.30 0 -2.85 1.15 -5.70 4.15 -3.40 3.55 -4.50 5.50 -6.85 12 -3.05 8.25 -5.15 10.85 -8.75 10.85 -1.60 0 -2.30 -0.35 -3.90 -1.95z" transform="matrix(1, 0, 0, 1, 0, 3.552713678800501e-15)"/>
  <path d="M858.15 606.75 c-1.85 -0.80 -2.60 -2.10 -4.70 -8.15 -4.45 -12.70 -8.20 -17 -17.45 -19.80 -5.50 -1.70 -8.90 -3.75 -10.30 -6.10 -0.95 -1.60 -1.20 -2.55 -0.95 -3.60 0.45 -2.05 3.05 -5 4.90 -5.55 5.50 -1.65 13.70 -5.25 15.30 -6.70 2.05 -1.90 4.85 -6 5.55 -8.10 0.35 -1.10 0.80 -2.20 1.05 -2.50 0.25 -0.25 0.45 -0.85 0.45 -1.35 0 -1.15 2.45 -7.30 3.60 -9 2.10 -3.10 6.25 -3.80 8.65 -1.45 2.20 2.10 2.55 2.65 3.30 4.85 0.35 1.05 0.85 2.15 1.05 2.45 0.20 0.25 0.40 0.95 0.40 1.55 0 0.65 0.25 1.30 0.50 1.45 0.30 0.15 0.50 0.85 0.50 1.55 0 0.65 0.25 1.20 0.50 1.20 0.30 0 0.50 0.50 0.50 1.15 0 0.60 0.45 1.65 1 2.35 0.55 0.70 1 1.50 1 1.75 0 0.65 3.70 4.25 5.75 5.60 0.85 0.55 3.75 1.70 6.50 2.60 8.15 2.65 11.25 5 11.25 8.40 0 0.95 -0.30 2.30 -0.70 3.10 -0.80 1.45 -3.75 3.70 -5.80 4.25 -1.25 0.40 -3.55 1.35 -6.10 2.55 -0.75 0.35 -2.05 0.80 -2.90 1 -1.95 0.40 -7.35 5.85 -9.10 9.10 -0.70 1.30 -2.15 4.95 -3.20 8.10 -1.55 4.70 -2.25 6.10 -3.95 7.90 -2.30 2.35 -3.70 2.65 -6.60 1.40z" transform="matrix(1, 0, 0, 1, 0, 3.552713678800501e-15)"/>
  <path d="M144.40 546.70 c-1.75 -0.90 -3.60 -4.15 -4.60 -7.85 -0.75 -3.05 -1.95 -4.85 -3.15 -4.85 -0.35 0 -1.05 -0.20 -1.55 -0.45 -0.45 -0.25 -1.80 -0.75 -2.95 -1.05 -1.15 -0.35 -2.20 -0.95 -2.35 -1.30 -0.15 -0.40 -0.60 -0.70 -1 -0.70 -0.70 0 -0.90 -0.50 -1.55 -3.80 -0.15 -0.55 0.05 -1.40 0.40 -1.80 1 -1.25 3.70 -2.90 4.70 -2.90 0.50 0 1.20 -0.25 1.55 -0.60 0.30 -0.30 1.10 -0.65 1.70 -0.75 1.75 -0.25 3.65 -2.70 4.65 -5.95 0.50 -1.65 1.10 -3.15 1.35 -3.40 0.20 -0.30 0.40 -0.80 0.40 -1.20 0 -1.25 1.95 -3.45 3.30 -3.75 0.70 -0.10 2.05 0 3 0.30 1.45 0.45 1.95 1.05 3.15 3.55 0.80 1.70 1.75 3.95 2.10 5.05 0.80 2.50 3.30 5.25 4.70 5.25 0.60 0 1.75 0.30 2.55 0.70 0.80 0.40 2.30 1.05 3.30 1.55 1.10 0.50 1.75 1.10 1.60 1.50 -0.15 0.35 0.10 0.75 0.50 0.90 0.95 0.40 1.05 2.85 0.15 2.85 -0.40 0 -1.10 0.85 -1.65 1.85 -0.80 1.55 -1.40 2 -3.85 2.70 -3.60 1.05 -6.20 3 -7.25 5.40 -0.45 1 -0.75 1.95 -0.70 2.15 0.20 0.85 -2.55 5.90 -3.20 5.90 -0.40 0 -0.85 0.35 -1 0.75 -0.40 0.95 -2.55 0.95 -4.30 -0.05z" transform="matrix(1, 0, 0, 1, 0, 3.552713678800501e-15)"/>
  <path d="M176.75 493.90 c-1.55 -0.85 -4.20 -3.50 -5 -5 -0.40 -0.80 -1.10 -2.05 -1.55 -2.90 -0.55 -1.05 -1.15 -1.50 -2 -1.50 -0.65 0 -1.20 -0.20 -1.20 -0.40 0 -0.25 -1.95 -0.35 -4.35 -0.25 -10.55 0.45 -10.75 0.40 -12.60 -1.15 -2.55 -2.15 -2 -5.75 1.75 -11.20 0.85 -1.25 1.95 -3.10 2.40 -4.10 l0.90 -1.85 -1.70 -2.90 c-2 -3.45 -4.90 -9.50 -4.90 -10.20 0 -0.30 0.25 -0.35 0.60 -0.15 0.40 0.25 0.45 0 0.25 -0.80 -0.75 -2.85 3.95 -6.10 7.05 -4.95 0.70 0.30 1.60 0.35 2 0.20 0.45 -0.15 0.90 -0.05 1.10 0.25 0.20 0.30 2.25 0.65 4.65 0.80 l4.30 0.30 2.20 -2.15 c1.20 -1.20 2.95 -3.25 3.85 -4.55 0.90 -1.35 2.15 -2.70 2.70 -3.05 0.85 -0.50 4.60 -0.75 6.40 -0.40 0.75 0.15 2.40 3.75 2.15 4.60 -0.20 0.55 -0.10 0.95 0.15 0.95 0.25 0 0.35 0.55 0.20 1.25 -0.10 0.70 0 1.25 0.25 1.25 0.25 0 0.45 1.40 0.55 3.15 0.05 3.20 1 6.25 2.20 7.20 1.25 1 4.45 2.65 5.15 2.65 0.40 0 0.75 0.25 0.75 0.50 0 0.30 0.40 0.50 0.90 0.55 0.45 0 1.55 0.45 2.35 1 0.85 0.55 1.90 1.10 2.40 1.25 0.45 0.20 0.85 0.50 0.85 0.80 0 0.25 0.45 0.95 1 1.50 1.65 1.80 -0.15 5.95 -3.35 7.70 -1.20 0.65 -2.15 1.05 -2.15 0.95 0 -0.15 -0.50 0.05 -1.10 0.45 -0.65 0.35 -1.80 0.85 -2.65 1.05 -0.80 0.15 -2.55 0.80 -3.80 1.30 -2 0.85 -2.40 1.30 -2.95 3.10 -0.30 1.15 -0.80 2.50 -1.05 2.95 -0.25 0.50 -0.45 1.85 -0.45 3.10 0 1.30 -0.30 2.40 -0.75 2.80 -0.40 0.35 -0.75 1.15 -0.75 1.75 0 1.70 -1.85 3.75 -3.45 3.75 -0.75 0 -1.55 0.20 -1.80 0.45 -0.30 0.30 -0.90 0.30 -1.50 -0.05z" transform="matrix(1, 0, 0, 1, 0, 3.552713678800501e-15)"/>
  <path d="M862.55 478.15 c-1.50 -0.30 -3.85 -2.40 -4.85 -4.35 -0.45 -0.85 -1.40 -3.30 -2.20 -5.45 -3.20 -8.60 -7.50 -14.75 -11.80 -16.80 -0.80 -0.35 -1.85 -0.85 -2.30 -1.10 -0.50 -0.25 -1.30 -0.45 -1.80 -0.45 -0.50 0 -1.10 -0.15 -1.25 -0.35 -0.20 -0.15 -1.90 -0.80 -3.85 -1.45 -6.40 -2 -9.35 -5.60 -8 -9.75 0.55 -1.60 1.30 -2.35 4 -4.10 1.80 -1.15 5.10 -2.65 7.30 -3.35 2.15 -0.65 4.05 -1.40 4.20 -1.60 0.15 -0.20 1.20 -0.75 2.30 -1.25 2.15 -1 3.80 -2.45 5.80 -5.15 1.70 -2.40 2.65 -4.45 4.90 -10.95 2.15 -6.30 3.60 -8.50 6.30 -9.80 4.15 -1.95 7.95 1.35 10.45 9.10 1.60 4.80 3.50 8.95 5.15 11.30 1.60 2.20 6.45 6.35 7.50 6.35 0.20 0 1.50 0.55 2.90 1.20 1.35 0.65 3.60 1.55 4.95 2 4.35 1.45 6.35 2.85 7.60 5.45 l1.20 2.35 -1.20 2.40 c-1.15 2.35 -3.95 4.45 -5.95 4.55 -0.50 0.05 -0.90 0.30 -0.90 0.55 0 0.30 -0.45 0.50 -0.95 0.50 -0.55 0 -1.15 0.25 -1.30 0.50 -0.15 0.30 -0.85 0.50 -1.55 0.50 -0.65 0 -1.20 0.25 -1.20 0.50 0 0.30 -0.35 0.50 -0.75 0.50 -1.30 0 -5.80 2.65 -7.70 4.55 -3.95 3.90 -5.65 6.90 -8.55 15.30 -0.80 2.30 -1.95 4.80 -2.50 5.55 -1.20 1.50 -3.50 3.15 -4.25 3.05 -0.25 -0.05 -1.05 -0.20 -1.70 -0.30z" transform="matrix(1, 0, 0, 1, 0, 3.552713678800501e-15)"/>
  <path d="M143.75 406.30 c-1.85 -1 -3.10 -2.65 -3.45 -4.55 -0.20 -1.05 -0.55 -2.25 -0.80 -2.70 -0.25 -0.45 -0.95 -1.95 -1.60 -3.40 -1.05 -2.35 -1.35 -2.60 -3.15 -2.90 -1.10 -0.20 -2.85 -0.90 -3.85 -1.55 -1.05 -0.65 -2.10 -1.20 -2.40 -1.20 -0.60 0 -2 -2.65 -2 -3.85 0 -0.75 0.10 -0.80 0.50 -0.15 0.35 0.60 0.50 0.40 0.50 -0.75 0 -1.55 1.40 -3.25 2.75 -3.25 0.35 0 0.80 -0.20 0.95 -0.45 0.25 -0.40 3.05 -1.15 3.50 -0.90 0.15 0.05 1.05 -0.65 2 -1.60 1.65 -1.60 3.05 -4.70 4.30 -9.30 0.30 -1.10 1 -2.35 1.65 -2.80 1.45 -1.05 3.70 -1.60 4.10 -0.95 0.15 0.25 0.75 0.50 1.35 0.50 0.55 0 1.10 0.40 1.25 1 0.15 0.55 0.45 1 0.70 1 0.25 0 0.80 0.70 1.25 1.55 0.65 1.30 0.70 1.65 0.10 2.05 -0.45 0.35 -0.50 0.55 -0.05 0.70 0.30 0.15 0.85 1.25 1.20 2.50 0.50 1.65 1.30 2.80 2.80 4 1.20 1 2.35 1.65 2.55 1.50 0.25 -0.15 1.05 0.10 1.80 0.50 0.80 0.35 1.65 0.70 1.90 0.70 0.90 0 2.75 1.75 2.50 2.40 -0.10 0.30 0.05 0.60 0.35 0.60 0.70 0 0.75 1.85 0.05 2.25 -0.25 0.15 -0.30 0.65 -0.15 1.10 0.20 0.50 0.10 0.70 -0.25 0.45 -0.30 -0.15 -0.65 0.15 -0.85 0.70 -0.35 1.05 -2.65 2.50 -4.45 2.70 -3.10 0.45 -5.30 2.35 -6.30 5.55 -0.35 1.10 -0.80 2.25 -1 2.50 -0.20 0.30 -0.50 1.15 -0.70 1.90 -0.25 1.05 -2.45 3.85 -3 3.85 -0.05 0 -0.75 0.20 -1.55 0.40 -0.90 0.25 -1.90 0.20 -2.50 -0.10z" transform="matrix(1, 0, 0, 1, 0, 3.552713678800501e-15)"/>
  <path d="M859.90 348.60 c-1 -0.75 -3 -2.85 -4.45 -4.75 -1.40 -1.85 -3.05 -3.50 -3.65 -3.60 -0.55 -0.15 -2.95 -0.05 -5.30 0.25 -7.05 0.85 -10.50 0.65 -12.35 -0.80 -1.50 -1.15 -1.65 -1.50 -1.65 -3.95 0 -1.50 0.20 -2.80 0.45 -3 0.25 -0.15 1.05 -1.50 1.75 -3.05 0.70 -1.50 1.75 -3.35 2.30 -4.05 1.45 -1.90 1.25 -3.95 -0.95 -7.95 -2.15 -3.95 -3.35 -8.40 -2.85 -10.40 0.75 -3 4.30 -4.25 9.30 -3.25 3.55 0.70 6.55 0.85 7.60 0.35 0.50 -0.25 0.90 -0.15 1 0.20 0.30 0.85 2.30 -0.75 4.40 -3.55 4.55 -5.95 7.50 -7.70 10.70 -6.35 1.80 0.75 3.45 2.90 3 3.95 -0.15 0.40 0.10 1.95 0.50 3.40 0.45 1.45 0.80 3.65 0.80 4.90 0 3.85 1.15 5.40 6 7.75 2.35 1.20 5.30 2.60 6.65 3.20 1.30 0.60 2.35 1.30 2.35 1.55 0 0.25 0.35 0.85 0.80 1.30 0.75 0.70 0.75 0.90 0 2.50 -0.45 0.90 -0.75 1.85 -0.70 2.10 0.10 0.20 0 0.45 -0.25 0.50 -0.20 0.10 -0.90 0.70 -1.60 1.45 -0.65 0.70 -1.40 1.15 -1.65 1 -0.30 -0.15 -0.75 0.05 -1.10 0.45 -0.35 0.40 -1.15 0.75 -1.80 0.75 -0.60 0 -1.30 0.25 -1.45 0.50 -0.20 0.30 -0.50 0.40 -0.75 0.25 -0.20 -0.15 -0.70 0.10 -1.05 0.55 -0.40 0.45 -1.05 0.65 -1.75 0.50 -2.30 -0.60 -4.55 3.60 -4.75 8.95 -0.20 4.65 -2.05 8.25 -4.70 9.25 -1.95 0.75 -2.80 0.55 -4.85 -0.90z" transform="matrix(1, 0, 0, 1, 0, 3.552713678800501e-15)"/>
  <path d="M172.45 346.35 c-1.80 -1 -3.95 -4.80 -4.75 -8.20 -0.30 -1.55 -1.50 -4.45 -2.20 -5.65 -0.25 -0.40 -0.90 -1.75 -1.50 -2.95 -0.55 -1.20 -2.40 -3.55 -4.15 -5.25 -2.60 -2.55 -3.80 -3.30 -7.10 -4.45 -2.20 -0.80 -4.65 -1.60 -5.50 -1.80 -3.05 -0.80 -6.50 -2.85 -7.60 -4.50 -2.55 -3.80 -0.95 -7.15 4.70 -9.80 2.05 -0.95 4.10 -1.75 4.50 -1.75 0.40 0 2.70 -0.90 5.10 -2 3 -1.45 4.95 -2.75 6.50 -4.40 2.50 -2.65 5.40 -8.55 6.95 -14 2.05 -7.15 5.15 -10.50 9.25 -9.95 3.10 0.40 4.80 2.60 7.25 9.35 3.05 8.45 3.90 10.25 5.90 12.70 2.50 3.10 4.95 4.45 13.80 7.50 4.65 1.65 7.85 3.65 8.25 5.20 0.15 0.60 0.45 1.10 0.70 1.10 0.60 0 0.45 2.95 -0.20 4.25 -0.75 1.45 -1.75 2.30 -4.30 3.70 -3.55 1.85 -8.95 4 -9.30 3.65 -0.15 -0.20 -0.45 -0.10 -0.65 0.15 -0.20 0.30 -0.85 0.80 -1.45 1.15 -2.90 1.55 -3.45 1.95 -5.45 3.85 -2.90 2.75 -4.90 6.10 -7 11.70 -2.50 6.75 -3.20 7.95 -5.40 9.85 -2.25 1.95 -3.70 2.10 -6.35 0.55z" transform="matrix(1, 0, 0, 1, 0, 3.552713678800501e-15)"/>
  <path d="M651.05 229.70 c-0.85 -1.05 -2 -3.25 -2.55 -4.95 -1.70 -4.95 -2.60 -6.50 -4 -6.65 -0.65 -0.10 -1.65 -0.50 -2.20 -0.90 -0.55 -0.40 -1.55 -0.70 -2.15 -0.70 -0.65 0 -1.60 -0.45 -2.15 -1 -0.55 -0.55 -1.15 -0.95 -1.35 -0.95 -0.25 0.05 -0.75 -0.55 -1.20 -1.35 -1 -1.75 -0.70 -4.65 0.50 -5.05 0.45 -0.20 1.40 -0.75 2.15 -1.25 0.70 -0.50 1.90 -0.90 2.60 -0.90 0.75 0 1.45 -0.35 1.60 -0.75 0.20 -0.40 0.80 -0.75 1.40 -0.75 0.55 0 1.40 -0.30 1.85 -0.65 0.95 -0.75 2.70 -4.40 3.70 -7.65 0.75 -2.60 2.80 -5.05 3.70 -4.50 0.25 0.20 0.70 -0.05 0.95 -0.50 0.35 -0.65 0.75 -0.70 2.55 -0.20 1.15 0.30 1.95 0.75 1.80 1 -0.20 0.30 0.05 0.50 0.45 0.50 0.45 0 0.80 0.30 0.80 0.70 0 0.35 0.35 0.95 0.75 1.30 0.60 0.50 0.65 0.80 0.20 1.30 -0.35 0.45 -0.40 0.95 -0.10 1.35 0.25 0.30 0.75 1.50 1.10 2.60 1.30 3.85 2.95 5.15 7.65 6.10 0.75 0.15 2.05 0.90 2.95 1.70 0.85 0.75 1.75 1.50 2 1.55 0.20 0.10 0.25 1.10 0.10 2.30 -0.30 2.30 -2.75 5.35 -3.90 4.90 -0.35 -0.10 -1.15 0.15 -1.80 0.60 -0.65 0.45 -1.40 0.85 -1.70 0.85 -0.25 0 -1.30 0.45 -2.35 0.95 -1.75 0.90 -2.80 2.55 -3.70 5.80 -1.30 4.70 -4.60 8.05 -6.45 6.50 -0.65 -0.55 -0.90 -0.55 -1.20 -0.05 -0.30 0.45 -0.85 0.10 -2 -1.25z" transform="matrix(1, 0, 0, 1, 0, 3.552713678800501e-15)"/>
  <path d="M 547.582 351.476 C 546.732 351.076 545.682 350.126 545.282 349.326 C 544.282 347.376 543.382 342.726 543.432 339.826 C 543.482 338.526 543.482 329.226 543.432 319.226 C 543.382 298.976 543.632 297.376 546.482 294.926 C 548.882 292.976 552.832 293.026 554.882 295.126 C 557.382 297.676 557.532 298.926 557.632 317.326 C 557.832 340.126 557.082 347.276 554.282 350.376 C 552.882 351.976 549.832 352.476 547.582 351.476 Z" transform="matrix(1, 0, 0, 1, 0, 3.552713678800501e-15)"/>
  <path d="M 465.766 173.592 C 464.926 174.215 463.247 175.96 462.029 177.538 C 460.854 179.075 459.469 180.446 458.965 180.529 C 458.503 180.653 456.488 180.57 454.515 180.321 C 448.596 179.615 445.699 179.781 444.146 180.986 C 442.886 181.941 442.761 182.232 442.761 184.267 C 442.761 185.513 442.928 186.593 443.138 186.759 C 443.348 186.884 444.02 188.005 444.608 189.293 C 445.195 190.539 446.077 192.076 446.539 192.657 C 447.756 194.236 447.588 195.939 445.741 199.261 C 443.936 202.543 442.928 206.239 443.348 207.901 C 443.978 210.393 446.959 211.431 451.157 210.601 C 454.137 210.019 456.656 209.895 457.538 210.31 C 457.957 210.518 458.293 210.435 458.377 210.144 C 458.629 209.438 460.308 210.767 462.071 213.093 C 465.892 218.036 468.368 219.489 471.055 218.368 C 472.566 217.745 473.952 215.959 473.574 215.087 C 473.448 214.754 473.658 213.467 473.994 212.262 C 474.372 211.058 474.665 209.23 474.665 208.192 C 474.665 204.993 475.631 203.706 479.703 201.754 C 481.676 200.757 484.153 199.594 485.286 199.095 C 486.378 198.597 487.26 198.015 487.26 197.808 C 487.26 197.6 487.553 197.102 487.931 196.728 C 488.561 196.146 488.561 195.98 487.931 194.651 C 487.553 193.903 487.301 193.114 487.343 192.906 C 487.427 192.74 487.343 192.533 487.134 192.491 C 486.966 192.408 486.378 191.91 485.79 191.287 C 485.244 190.705 484.615 190.331 484.405 190.456 C 484.153 190.58 483.775 190.414 483.481 190.082 C 483.187 189.75 482.516 189.459 481.97 189.459 C 481.466 189.459 480.879 189.251 480.753 189.044 C 480.585 188.794 480.333 188.711 480.123 188.836 C 479.955 188.961 479.535 188.753 479.241 188.379 C 478.905 188.005 478.36 187.839 477.772 187.964 C 475.841 188.462 473.952 184.973 473.784 180.529 C 473.616 176.666 472.063 173.675 469.838 172.845 C 468.201 172.222 467.487 172.388 465.766 173.592 Z" style="transform-origin: 465.582px 195.608px;" transform="matrix(-1, 0, 0, -1, 0.000061035156, 0)"/>
</svg>